<?xml version="1.0" encoding="UTF-8"?>
<svg id="OBJECTS" xmlns="http://www.w3.org/2000/svg" xmlns:xlink="http://www.w3.org/1999/xlink" viewBox="0 0 90 170">
  <defs>
    <style>
      .cls-1 {
        clip-path: url(#clippath);
      }

      .cls-2 {
        fill: none;
      }

      .cls-2, .cls-3, .cls-4 {
        stroke-width: 0px;
      }

      .cls-3 {
        fill: #fff;
        opacity: .5;
      }

      .cls-4 {
        fill: #9c1d1d;
      }
    </style>
    <clipPath id="clippath">
      <path class="cls-2" d="M55.51,94.23h-7.81v-5.04h-7.99v10.04h15.44v13.61c-1.98.58-3.92.86-5.9.86s-3.92-.29-5.9-.86c-1.98-.54-3.92-.83-5.9-.83s-3.92.29-5.9.83v-6.84h7.81v4.64c1.33.11,2.66.36,4,.76,1.26.36,2.59.61,4,.76v-11.48h-15.44v-11.48h-1.8v-1.44h25.41v6.48Z"/>
    </clipPath>
  </defs>
  <g>
    <path class="cls-4" d="M90,41.92V7.53C85.73,7.53,82.27,4.16,82.27,0h-4.09c0,1.31-1.09,2.37-2.44,2.37S73.31,1.31,73.31,0h-5.38c0,1.31-1.09,2.37-2.44,2.37S63.06,1.31,63.06,0h-5.38c0,1.31-1.09,2.37-2.44,2.37S52.81,1.31,52.81,0h-5.38c0,1.31-1.09,2.37-2.44,2.37S42.56,1.31,42.56,0h-5.38c0,1.31-1.09,2.37-2.44,2.37S32.32,1.31,32.32,0h-5.38c0,1.31-1.09,2.37-2.44,2.37S22.07,1.31,22.07,0h-5.38c0,1.31-1.09,2.37-2.44,2.37S11.82,1.31,11.82,0h-4.09C7.73,4.16,4.27,7.53,0,7.53v34.39c4.25,0,7.69,3.34,7.72,7.47C7.69,53.51,4.25,56.84,0,56.84v105.65c4.27,0,7.73,3.36,7.73,7.51h4.09c0-1.31,1.09-2.37,2.44-2.37s2.44,1.06,2.44,2.37h5.38c0-1.31,1.09-2.37,2.44-2.37s2.44,1.06,2.44,2.37h5.38c0-1.31,1.09-2.37,2.44-2.37s2.44,1.06,2.44,2.37h5.38c0-1.31,1.09-2.37,2.44-2.37s2.44,1.06,2.44,2.37h5.38c0-1.31,1.09-2.37,2.44-2.37s2.44,1.06,2.44,2.37h5.38c0-1.31,1.09-2.37,2.44-2.37s2.44,1.06,2.44,2.37h5.38c0-1.31,1.09-2.37,2.44-2.37s2.44,1.06,2.44,2.37h4.09c0-4.15,3.46-7.51,7.73-7.51V56.84c-4.25,0-7.69-3.33-7.72-7.45.04-4.13,3.48-7.47,7.72-7.47ZM14.26,51.7c-1.32,0-2.39-1.03-2.43-2.3.04-1.28,1.11-2.31,2.43-2.31s2.39,1.03,2.43,2.31c-.04,1.28-1.11,2.3-2.43,2.3ZM24.5,51.7c-1.32,0-2.39-1.03-2.43-2.3.04-1.28,1.11-2.31,2.43-2.31s2.39,1.03,2.43,2.31c-.04,1.28-1.11,2.3-2.43,2.3ZM34.75,51.7c-1.32,0-2.39-1.03-2.43-2.3.04-1.28,1.11-2.31,2.43-2.31s2.39,1.03,2.43,2.31c-.04,1.28-1.11,2.3-2.43,2.3ZM45,51.7c-1.32,0-2.39-1.03-2.43-2.3.04-1.28,1.11-2.31,2.43-2.31s2.39,1.03,2.43,2.31c-.04,1.28-1.11,2.3-2.43,2.3ZM55.25,51.7c-1.32,0-2.39-1.03-2.43-2.3.04-1.28,1.11-2.31,2.43-2.31s2.39,1.03,2.43,2.31c-.04,1.28-1.11,2.3-2.43,2.3ZM65.5,51.7c-1.32,0-2.39-1.03-2.43-2.3.04-1.28,1.11-2.31,2.43-2.31s2.39,1.03,2.43,2.31c-.04,1.28-1.11,2.3-2.43,2.3ZM75.74,51.7c-1.32,0-2.39-1.03-2.43-2.3.04-1.28,1.11-2.31,2.43-2.31s2.39,1.03,2.43,2.31c-.04,1.28-1.11,2.3-2.43,2.3Z"/>
    <path class="cls-3" d="M79.01,53.16H10.99c-1.18,3.18-3.77,5.7-7.04,6.84v99.31c3.27,1.14,5.86,3.67,7.04,6.84h68.02c1.18-3.18,3.77-5.7,7.04-6.84V60.01c-3.27-1.14-5.86-3.67-7.04-6.84ZM4.94,60.66c3.04-1.25,5.44-3.59,6.73-6.54h0c-1.29,2.95-3.69,5.29-6.73,6.54h0ZM85.06,60.66c-3.04-1.25-5.44-3.59-6.73-6.54h0c1.29,2.95,3.69,5.29,6.73,6.54h0Z"/>
    <path class="cls-3" d="M79.01,3.84H10.99c-1.18,3.18-3.77,5.7-7.04,6.84v27.95c3.27,1.14,5.86,3.67,7.04,6.84h68.02c1.18-3.18,3.77-5.7,7.04-6.84V10.68c-3.27-1.14-5.86-3.67-7.04-6.84ZM9.77,7.83c.77-.91,1.41-1.93,1.89-3.04h66.68c.48,1.11,1.12,2.13,1.89,3.04.77.91,1.67,1.71,2.68,2.37-1.01-.66-1.91-1.46-2.68-2.37-.77-.91-1.41-1.93-1.89-3.04H11.66c-.48,1.11-1.12,2.13-1.89,3.04-.77.91-1.67,1.71-2.68,2.37,1.01-.66,1.91-1.46,2.68-2.37Z"/>
    <g>
      <rect class="cls-4" x="41.8" y="18.53" width="1.02" height="13.86"/>
      <rect class="cls-4" x="43.97" y="18.53" width="4.21" height="13.86"/>
      <rect class="cls-4" x="38.22" y="18.53" width="2.42" height="13.86"/>
      <rect class="cls-4" x="59.64" y="18.53" width="1.26" height="13.86"/>
      <rect class="cls-4" x="54.53" y="18.53" width="3.96" height="13.86"/>
      <rect class="cls-4" x="52.36" y="18.53" width="1.02" height="13.86"/>
      <rect class="cls-4" x="49.33" y="18.53" width="1.87" height="13.86"/>
      <rect class="cls-4" x="20.13" y="18.53" width="1.02" height="13.86"/>
      <rect class="cls-4" x="15.42" y="18.53" width="3.55" height="13.86"/>
      <rect class="cls-4" x="27.66" y="18.53" width="1.87" height="13.86"/>
      <rect class="cls-4" x="22.3" y="18.53" width="4.21" height="13.86"/>
      <rect class="cls-4" x="30.69" y="18.53" width="1.02" height="13.86"/>
      <rect class="cls-4" x="32.86" y="18.53" width="4.21" height="13.86"/>
      <rect class="cls-4" x="66.16" y="18.53" width="1.02" height="13.86"/>
      <rect class="cls-4" x="62.06" y="18.53" width="2.94" height="13.86"/>
      <rect class="cls-4" x="73.7" y="18.53" width="1.95" height="13.86"/>
      <rect class="cls-4" x="68.33" y="18.53" width="4.21" height="13.86"/>
    </g>
  </g>
  <g>
    <path class="cls-4" d="M15.51,13.26h-1.13v-.2h3.35v.2h-1.13v3.29h-1.09v-3.29Z"/>
    <path class="cls-4" d="M20.65,14.9h-1.17v1.65h-1.09v-3.29h-.25v-.2h1.34v1.64h1.17v-1.64h1.09v3.49h-1.09v-1.65Z"/>
    <path class="cls-4" d="M23.76,13.06v3.18c.2.02.39.06.59.11.19.06.39.09.58.1v-3.39h1.09v3.49c-.54.15-1.13.15-1.67,0-.44-.13-.74-.12-.84-.12-.18,0-.35.02-.52.04l-.31.08v-3.29h-.25v-.2h1.34Z"/>
    <path class="cls-4" d="M30.31,13.06v2.18h-.54l.94,1.31h-1.24l-.94-1.31h-.48v1.31h-1.09v-3.29h-.25v-.2h3.6ZM28.05,15.03h1.17v-1.78h-1.17v1.78Z"/>
    <path class="cls-4" d="M34.54,13.96h-1.09v-.7h-1.12v1.4h2.15v1.89c-.28.08-.55.12-.82.12s-.55-.04-.82-.12c-.28-.08-.55-.12-.82-.12s-.55.04-.82.12v-.95h1.09v.65c.19.01.37.05.56.1.17.05.36.08.56.1v-1.6h-2.15v-1.6h-.25v-.2h3.54v.9Z"/>
    <path class="cls-4" d="M38.15,13.06c.38,0,.52.2.52.52v2.97h-.01c-.27.08-.53.12-.81.12-.02,0-.31.03-.85-.12-.54-.16-1.13-.16-1.68,0v-3.29h-.25v-.2h3.08ZM36.41,13.26v2.98c.2.02.39.06.59.11.19.06.39.09.58.1v-2.88c0-.24-.08-.31-.31-.31h-.86Z"/>
    <path class="cls-4" d="M41.73,13.06l1.24,3.49h-1.16l-.39-1.09h-1.5l-.38,1.09h-.26l1.16-3.29h-.25v-.2h1.53ZM39.99,15.26h1.36l-.68-1.91-.68,1.91Z"/>
    <path class="cls-4" d="M44.43,15.13l-1.16-2.08h1.17l.92,1.65,1.08-1.65h.24l-1.16,1.78v1.71h-1.09v-1.41Z"/>
    <path class="cls-4" d="M47.41,15.46h1.09v1.09l-.71.54h-.2l.32-.54h-.5v-1.09Z"/>
    <path class="cls-4" d="M54.04,13.06v3.49c-.27.07-.54.11-.81.11s-.54-.04-.81-.11c-.27-.08-.54-.12-.81-.12s-.54.04-.81.12v-3.49h3.23ZM52.96,16.44v-3.19h-1.06v2.98c.17.02.35.05.53.1.17.06.35.08.53.1Z"/>
    <path class="cls-4" d="M55.8,16.24c.18.02.35.05.53.1.17.06.35.08.53.1v-1.4h-2.15v-1.99h3.23v3.49h-.01c-.26.08-.52.11-.79.11s-.54-.04-.82-.11c-.27-.08-.54-.12-.81-.12s-.54.04-.81.12v-.9h1.09v.59ZM55.8,14.85h1.06v-1.59h-1.06v1.59Z"/>
    <path class="cls-4" d="M59.11,14.44h-.68v-.12h2v.12h-.68v1.98h-.65v-1.98Z"/>
    <path class="cls-4" d="M62.1,15.43h-.7v.99h-.65v-1.98h-.15v-.12h.8v.99h.7v-.99h.65v2.1h-.65v-.99Z"/>
    <path class="cls-4" d="M65.99,16.54l-.99-2.93v2.93h-.2v-3.29h-.25v-.2h1.35l.87,2.55.82-2.55h1.09v3.49h-1.07v-2.92l-.94,2.92h-.68Z"/>
    <path class="cls-4" d="M71.59,13.06l1.23,3.49h-1.16l-.39-1.09h-1.49l-.38,1.09h-.25l1.16-3.29h-.25v-.2h1.53ZM69.86,15.26h1.35l-.68-1.91-.67,1.91Z"/>
    <path class="cls-4" d="M74.16,15.13l-1.16-2.08h1.16l.92,1.65,1.08-1.65h.24l-1.16,1.78v1.71h-1.09v-1.41Z"/>
  </g>
  <g class="cls-1">
    <rect class="cls-4" x="5.84" y="63.84" width="80.25" height="65.66"/>
  </g>
</svg>