<?xml version="1.0" encoding="UTF-8"?>
<svg id="OBJECTS" xmlns="http://www.w3.org/2000/svg" viewBox="0 0 90 170">
  <defs>
    <style>
      .cls-1 {
        letter-spacing: .02em;
      }

      .cls-2 {
        letter-spacing: .03em;
      }

      .cls-3 {
        letter-spacing: 0em;
      }

      .cls-4 {
        letter-spacing: -.09em;
      }

      .cls-5 {
        letter-spacing: -.08em;
      }

      .cls-6 {
        fill: #fff;
        opacity: .5;
      }

      .cls-6, .cls-7 {
        stroke-width: 0px;
      }

      .cls-8 {
        letter-spacing: .03em;
      }

      .cls-8, .cls-7, .cls-9 {
        fill: #9c1d1d;
      }

      .cls-8, .cls-9 {
        font-family: JalnanGothic-KSCpc-EUC-H, 'Jalnan Gothic';
        font-size: 5px;
      }
    </style>
  </defs>
  <path class="cls-7" d="M90,41.92V7.53C85.73,7.53,82.27,4.16,82.27,0h-4.09c0,1.31-1.09,2.37-2.44,2.37S73.31,1.31,73.31,0h-5.38c0,1.31-1.09,2.37-2.44,2.37S63.06,1.31,63.06,0h-5.38c0,1.31-1.09,2.37-2.44,2.37S52.81,1.31,52.81,0h-5.38c0,1.31-1.09,2.37-2.44,2.37S42.56,1.31,42.56,0h-5.38c0,1.31-1.09,2.37-2.44,2.37S32.32,1.31,32.32,0h-5.38c0,1.31-1.09,2.37-2.44,2.37S22.07,1.31,22.07,0h-5.38c0,1.31-1.09,2.37-2.44,2.37S11.82,1.31,11.82,0h-4.09C7.73,4.16,4.27,7.53,0,7.53v34.39c4.25,0,7.69,3.34,7.72,7.47C7.69,53.51,4.25,56.84,0,56.84v105.65c4.27,0,7.73,3.36,7.73,7.51h4.09c0-1.31,1.09-2.37,2.44-2.37s2.44,1.06,2.44,2.37h5.38c0-1.31,1.09-2.37,2.44-2.37s2.44,1.06,2.44,2.37h5.38c0-1.31,1.09-2.37,2.44-2.37s2.44,1.06,2.44,2.37h5.38c0-1.31,1.09-2.37,2.44-2.37s2.44,1.06,2.44,2.37h5.38c0-1.31,1.09-2.37,2.44-2.37s2.44,1.06,2.44,2.37h5.38c0-1.31,1.09-2.37,2.44-2.37s2.44,1.06,2.44,2.37h5.38c0-1.31,1.09-2.37,2.44-2.37s2.44,1.06,2.44,2.37h4.09c0-4.15,3.46-7.51,7.73-7.51V56.84c-4.25,0-7.69-3.33-7.72-7.45.04-4.13,3.48-7.47,7.72-7.47ZM14.26,51.7c-1.32,0-2.39-1.03-2.43-2.3.04-1.28,1.11-2.31,2.43-2.31s2.39,1.03,2.43,2.31c-.04,1.28-1.11,2.3-2.43,2.3ZM24.5,51.7c-1.32,0-2.39-1.03-2.43-2.3.04-1.28,1.11-2.31,2.43-2.31s2.39,1.03,2.43,2.31c-.04,1.28-1.11,2.3-2.43,2.3ZM34.75,51.7c-1.32,0-2.39-1.03-2.43-2.3.04-1.28,1.11-2.31,2.43-2.31s2.39,1.03,2.43,2.31c-.04,1.28-1.11,2.3-2.43,2.3ZM45,51.7c-1.32,0-2.39-1.03-2.43-2.3.04-1.28,1.11-2.31,2.43-2.31s2.39,1.03,2.43,2.31c-.04,1.28-1.11,2.3-2.43,2.3ZM55.25,51.7c-1.32,0-2.39-1.03-2.43-2.3.04-1.28,1.11-2.31,2.43-2.31s2.39,1.03,2.43,2.31c-.04,1.28-1.11,2.3-2.43,2.3ZM65.5,51.7c-1.32,0-2.39-1.03-2.43-2.3.04-1.28,1.11-2.31,2.43-2.31s2.39,1.03,2.43,2.31c-.04,1.28-1.11,2.3-2.43,2.3ZM75.74,51.7c-1.32,0-2.39-1.03-2.43-2.3.04-1.28,1.11-2.31,2.43-2.31s2.39,1.03,2.43,2.31c-.04,1.28-1.11,2.3-2.43,2.3Z"/>
  <path class="cls-6" d="M79.01,53.16H10.99c-1.18,3.18-3.77,5.7-7.04,6.84v99.31c3.27,1.14,5.86,3.67,7.04,6.84h68.02c1.18-3.18,3.77-5.7,7.04-6.84V60.01c-3.27-1.14-5.86-3.67-7.04-6.84ZM4.94,60.66c3.04-1.25,5.44-3.59,6.73-6.54h0c-1.29,2.95-3.69,5.29-6.73,6.54h0ZM85.06,60.66c-3.04-1.25-5.44-3.59-6.73-6.54h0c1.29,2.95,3.69,5.29,6.73,6.54h0Z"/>
  <path class="cls-6" d="M79.01,3.84H10.99c-1.18,3.18-3.77,5.7-7.04,6.84v27.95c3.27,1.14,5.86,3.67,7.04,6.84h68.02c1.18-3.18,3.77-5.7,7.04-6.84V10.68c-3.27-1.14-5.86-3.67-7.04-6.84ZM9.77,7.83c.77-.91,1.41-1.93,1.89-3.04h66.68c.48,1.11,1.12,2.13,1.89,3.04.77.91,1.67,1.71,2.68,2.37-1.01-.66-1.91-1.46-2.68-2.37-.77-.91-1.41-1.93-1.89-3.04H11.66c-.48,1.11-1.12,2.13-1.89,3.04-.77.91-1.67,1.71-2.68,2.37,1.01-.66,1.91-1.46,2.68-2.37Z"/>
  <g>
    <rect class="cls-7" x="41.8" y="18.53" width="1.02" height="13.86"/>
    <rect class="cls-7" x="43.97" y="18.53" width="4.21" height="13.86"/>
    <rect class="cls-7" x="38.22" y="18.53" width="2.42" height="13.86"/>
    <rect class="cls-7" x="59.64" y="18.53" width="1.26" height="13.86"/>
    <rect class="cls-7" x="54.53" y="18.53" width="3.96" height="13.86"/>
    <rect class="cls-7" x="52.36" y="18.53" width="1.02" height="13.86"/>
    <rect class="cls-7" x="49.33" y="18.53" width="1.87" height="13.86"/>
    <rect class="cls-7" x="20.13" y="18.53" width="1.02" height="13.86"/>
    <rect class="cls-7" x="15.42" y="18.53" width="3.55" height="13.86"/>
    <rect class="cls-7" x="27.66" y="18.53" width="1.87" height="13.86"/>
    <rect class="cls-7" x="22.3" y="18.53" width="4.21" height="13.86"/>
    <rect class="cls-7" x="30.69" y="18.53" width="1.02" height="13.86"/>
    <rect class="cls-7" x="32.86" y="18.53" width="4.21" height="13.86"/>
    <rect class="cls-7" x="66.16" y="18.53" width="1.02" height="13.86"/>
    <rect class="cls-7" x="62.06" y="18.53" width="2.94" height="13.86"/>
    <rect class="cls-7" x="73.7" y="18.53" width="1.95" height="13.86"/>
    <rect class="cls-7" x="68.33" y="18.53" width="4.21" height="13.86"/>
  </g>
  <g>
    <text class="cls-9" transform="translate(17.13 16.04)"><tspan class="cls-2" x="0" y="0">THURS</tspan><tspan class="cls-3" x="18.7" y="0">D</tspan><tspan class="cls-5" x="22.47" y="0">A</tspan><tspan class="cls-4" x="26" y="0">Y</tspan><tspan class="cls-1" x="29.36" y="0">, 09</tspan></text>
    <text class="cls-8" transform="translate(56.76 14.38) scale(.59)"><tspan x="0" y="0">TH</tspan></text>
    <text class="cls-9" transform="translate(61.17 16.04)"><tspan class="cls-1" x="0" y="0" xml:space="preserve"> M</tspan><tspan class="cls-5" x="6.43" y="0">A</tspan><tspan class="cls-1" x="9.95" y="0">Y</tspan></text>
  </g>
</svg>