<?xml version="1.0" encoding="UTF-8"?>
<svg id="OBJECTS" xmlns="http://www.w3.org/2000/svg" xmlns:xlink="http://www.w3.org/1999/xlink" viewBox="0 0 90 170">
  <defs>
    <style>
      .cls-1 {
        letter-spacing: .02em;
      }

      .cls-2 {
        letter-spacing: .03em;
      }

      .cls-3 {
        letter-spacing: 0em;
      }

      .cls-4, .cls-5, .cls-6, .cls-7 {
        fill: #fff;
      }

      .cls-4, .cls-6 {
        font-family: JalnanGothic-KSCpc-EUC-H, 'Jalnan Gothic';
        font-size: 5px;
      }

      .cls-8 {
        letter-spacing: -.09em;
      }

      .cls-9 {
        fill: url(#_무제_그라디언트_39);
      }

      .cls-9, .cls-10, .cls-11, .cls-5, .cls-7 {
        stroke-width: 0px;
      }

      .cls-10 {
        fill: url(#_무제_그라디언트_88);
      }

      .cls-11 {
        fill: url(#_무제_그라디언트_93);
      }

      .cls-12 {
        letter-spacing: -.08em;
      }

      .cls-5 {
        opacity: .5;
      }

      .cls-6 {
        letter-spacing: .03em;
      }
    </style>
    <linearGradient id="_무제_그라디언트_39" data-name="무제 그라디언트 39" x1="10.25" y1="-.92" x2="80.28" y2="170.92" gradientUnits="userSpaceOnUse">
      <stop offset="0" stop-color="#e1a2ea"/>
      <stop offset=".18" stop-color="#bf5cf4"/>
      <stop offset=".36" stop-color="#a36af4"/>
      <stop offset=".59" stop-color="#83bcfd"/>
      <stop offset=".83" stop-color="#bafaa6"/>
      <stop offset="1" stop-color="#e5fe67"/>
    </linearGradient>
    <linearGradient id="_무제_그라디언트_93" data-name="무제 그라디언트 93" x1="67.41" y1="170.48" x2="23.13" y2="48.84" gradientUnits="userSpaceOnUse">
      <stop offset=".31" stop-color="#ca94ff"/>
      <stop offset="1" stop-color="#d6dbff"/>
    </linearGradient>
    <linearGradient id="_무제_그라디언트_88" data-name="무제 그라디언트 88" x1="55.94" y1="53.97" x2="34.6" y2="-4.66" gradientUnits="userSpaceOnUse">
      <stop offset="0" stop-color="#e994ff"/>
      <stop offset="0" stop-color="#d9d1ff"/>
      <stop offset=".52" stop-color="#d6dbff"/>
    </linearGradient>
  </defs>
  <path class="cls-9" d="M90.27,41.92V7.53c-4.27,0-7.73-3.37-7.73-7.53h-4.09c0,1.31-1.09,2.37-2.44,2.37s-2.44-1.06-2.44-2.37h-5.38c0,1.31-1.09,2.37-2.44,2.37s-2.44-1.06-2.44-2.37h-5.38c0,1.31-1.09,2.37-2.44,2.37s-2.44-1.06-2.44-2.37h-5.38c0,1.31-1.09,2.37-2.44,2.37s-2.44-1.06-2.44-2.37h-5.38c0,1.31-1.09,2.37-2.44,2.37s-2.44-1.06-2.44-2.37h-5.38c0,1.31-1.09,2.37-2.44,2.37s-2.44-1.06-2.44-2.37h-5.38c0,1.31-1.09,2.37-2.44,2.37s-2.44-1.06-2.44-2.37h-4.09c0,4.16-3.46,7.53-7.73,7.53v34.39c4.25,0,7.69,3.34,7.72,7.47-.04,4.12-3.48,7.45-7.72,7.45v105.65c4.27,0,7.73,3.36,7.73,7.51h4.09c0-1.31,1.09-2.37,2.44-2.37s2.44,1.06,2.44,2.37h5.38c0-1.31,1.09-2.37,2.44-2.37s2.44,1.06,2.44,2.37h5.38c0-1.31,1.09-2.37,2.44-2.37s2.44,1.06,2.44,2.37h5.38c0-1.31,1.09-2.37,2.44-2.37s2.44,1.06,2.44,2.37h5.38c0-1.31,1.09-2.37,2.44-2.37s2.44,1.06,2.44,2.37h5.38c0-1.31,1.09-2.37,2.44-2.37s2.44,1.06,2.44,2.37h5.38c0-1.31,1.09-2.37,2.44-2.37s2.44,1.06,2.44,2.37h4.09c0-4.15,3.46-7.51,7.73-7.51V56.84c-4.25,0-7.69-3.33-7.72-7.45.04-4.13,3.48-7.47,7.72-7.47ZM14.53,51.7c-1.32,0-2.39-1.03-2.43-2.3.04-1.28,1.11-2.31,2.43-2.31s2.39,1.03,2.43,2.31c-.04,1.28-1.11,2.3-2.43,2.3ZM24.77,51.7c-1.32,0-2.39-1.03-2.43-2.3.04-1.28,1.11-2.31,2.43-2.31s2.39,1.03,2.43,2.31c-.04,1.28-1.11,2.3-2.43,2.3ZM35.02,51.7c-1.32,0-2.39-1.03-2.43-2.3.04-1.28,1.11-2.31,2.43-2.31s2.39,1.03,2.43,2.31c-.04,1.28-1.11,2.3-2.43,2.3ZM45.27,51.7c-1.32,0-2.39-1.03-2.43-2.3.04-1.28,1.11-2.31,2.43-2.31s2.39,1.03,2.43,2.31c-.04,1.28-1.11,2.3-2.43,2.3ZM55.52,51.7c-1.32,0-2.39-1.03-2.43-2.3.04-1.28,1.11-2.31,2.43-2.31s2.39,1.03,2.43,2.31c-.04,1.28-1.11,2.3-2.43,2.3ZM65.76,51.7c-1.32,0-2.39-1.03-2.43-2.3.04-1.28,1.11-2.31,2.43-2.31s2.39,1.03,2.43,2.31c-.04,1.28-1.11,2.3-2.43,2.3ZM76.01,51.7c-1.32,0-2.39-1.03-2.43-2.3.04-1.28,1.11-2.31,2.43-2.31s2.39,1.03,2.43,2.31c-.04,1.28-1.11,2.3-2.43,2.3Z"/>
  <path class="cls-11" d="M79.28,53.16H11.26c-1.18,3.18-3.77,5.7-7.04,6.84v99.31c3.27,1.14,5.86,3.67,7.04,6.84h68.02c1.18-3.18,3.77-5.7,7.04-6.84V60.01c-3.27-1.14-5.86-3.67-7.04-6.84ZM85.33,158.66c-3.04,1.25-5.44,3.59-6.73,6.54H11.93c-1.29-2.95-3.69-5.29-6.73-6.54V60.66c3.04-1.25,5.44-3.59,6.73-6.54h66.68c1.29,2.95,3.69,5.29,6.73,6.54v98Z"/>
  <path class="cls-10" d="M79.28,3.84H11.26c-1.18,3.18-3.77,5.7-7.04,6.84v27.95c3.27,1.14,5.86,3.67,7.04,6.84h68.02c1.18-3.18,3.77-5.7,7.04-6.84V10.68c-3.27-1.14-5.86-3.67-7.04-6.84ZM85.33,37.98c-3.04,1.25-5.44,3.59-6.73,6.54H11.93c-1.29-2.95-3.69-5.29-6.73-6.54V11.34c3.04-1.25,5.44-3.59,6.73-6.54h66.68c1.29,2.95,3.69,5.29,6.73,6.54v26.64Z"/>
  <path class="cls-5" d="M78.61,54.12c1.29,2.95,3.69,5.29,6.73,6.54v98c-3.04,1.25-5.44,3.59-6.73,6.54H11.93c-1.29-2.95-3.69-5.29-6.73-6.54V60.66c3.04-1.25,5.44-3.59,6.73-6.54h66.68Z"/>
  <path class="cls-5" d="M78.61,4.8c1.29,2.95,3.69,5.29,6.73,6.54v26.64c-3.04,1.25-5.44,3.59-6.73,6.54H11.93c-1.29-2.95-3.69-5.29-6.73-6.54V11.34c3.04-1.25,5.44-3.59,6.73-6.54h66.68Z"/>
  <g>
    <rect class="cls-7" x="42.07" y="17.53" width="1.02" height="13.86"/>
    <rect class="cls-7" x="44.24" y="17.53" width="4.21" height="13.86"/>
    <rect class="cls-7" x="38.49" y="17.53" width="2.42" height="13.86"/>
    <rect class="cls-7" x="59.91" y="17.53" width="1.26" height="13.86"/>
    <rect class="cls-7" x="54.8" y="17.53" width="3.96" height="13.86"/>
    <rect class="cls-7" x="52.63" y="17.53" width="1.02" height="13.86"/>
    <rect class="cls-7" x="49.6" y="17.53" width="1.87" height="13.86"/>
    <rect class="cls-7" x="20.4" y="17.53" width="1.02" height="13.86"/>
    <rect class="cls-7" x="15.69" y="17.53" width="3.55" height="13.86"/>
    <rect class="cls-7" x="27.93" y="17.53" width="1.87" height="13.86"/>
    <rect class="cls-7" x="22.57" y="17.53" width="4.21" height="13.86"/>
    <rect class="cls-7" x="30.96" y="17.53" width="1.02" height="13.86"/>
    <rect class="cls-7" x="33.13" y="17.53" width="4.21" height="13.86"/>
    <rect class="cls-7" x="66.43" y="17.53" width="1.02" height="13.86"/>
    <rect class="cls-7" x="62.33" y="17.53" width="2.94" height="13.86"/>
    <rect class="cls-7" x="73.97" y="17.53" width="1.95" height="13.86"/>
    <rect class="cls-7" x="68.6" y="17.53" width="4.21" height="13.86"/>
  </g>
  <g>
    <text class="cls-4" transform="translate(15.79 15.96)"><tspan class="cls-2" x="0" y="0">THURS</tspan><tspan class="cls-3" x="18.7" y="0">D</tspan><tspan class="cls-12" x="22.47" y="0">A</tspan><tspan class="cls-8" x="26" y="0">Y</tspan><tspan class="cls-1" x="29.36" y="0">, 09</tspan></text>
    <text class="cls-6" transform="translate(55.42 14.29) scale(.59)"><tspan x="0" y="0">TH</tspan></text>
    <text class="cls-4" transform="translate(59.83 15.96)"><tspan class="cls-1" x="0" y="0" xml:space="preserve"> M</tspan><tspan class="cls-12" x="6.43" y="0">A</tspan><tspan class="cls-1" x="9.95" y="0">Y</tspan></text>
  </g>
</svg>