<?xml version="1.0" encoding="UTF-8"?>
<svg id="OBJECTS" xmlns="http://www.w3.org/2000/svg" viewBox="0 0 90 170">
  <defs>
    <style>
      .cls-1 {
        letter-spacing: .02em;
      }

      .cls-2 {
        letter-spacing: .03em;
      }

      .cls-3, .cls-4 {
        font-family: JalnanGothic-KSCpc-EUC-H, 'Jalnan Gothic';
        font-size: 5px;
      }

      .cls-3, .cls-4, .cls-5 {
        fill: #936616;
      }

      .cls-6 {
        letter-spacing: 0em;
      }

      .cls-7 {
        fill: #c93;
      }

      .cls-7, .cls-8, .cls-5 {
        stroke-width: 0px;
      }

      .cls-9 {
        letter-spacing: -.09em;
      }

      .cls-10 {
        letter-spacing: -.08em;
      }

      .cls-8 {
        fill: #fff;
        opacity: .5;
      }

      .cls-4 {
        letter-spacing: .03em;
      }
    </style>
  </defs>
  <path class="cls-7" d="M89.73,41.92V7.53c-4.27,0-7.73-3.37-7.73-7.53h-4.09c0,1.31-1.09,2.37-2.44,2.37s-2.44-1.06-2.44-2.37h-5.38c0,1.31-1.09,2.37-2.44,2.37s-2.44-1.06-2.44-2.37h-5.38c0,1.31-1.09,2.37-2.44,2.37s-2.44-1.06-2.44-2.37h-5.38c0,1.31-1.09,2.37-2.44,2.37s-2.44-1.06-2.44-2.37h-5.38c0,1.31-1.09,2.37-2.44,2.37s-2.44-1.06-2.44-2.37h-5.38c0,1.31-1.09,2.37-2.44,2.37s-2.44-1.06-2.44-2.37h-5.38c0,1.31-1.09,2.37-2.44,2.37s-2.44-1.06-2.44-2.37h-4.09c0,4.16-3.46,7.53-7.73,7.53v34.39c4.25,0,7.69,3.34,7.72,7.47-.04,4.12-3.48,7.45-7.72,7.45v105.65c4.27,0,7.73,3.36,7.73,7.51h4.09c0-1.31,1.09-2.37,2.44-2.37s2.44,1.06,2.44,2.37h5.38c0-1.31,1.09-2.37,2.44-2.37s2.44,1.06,2.44,2.37h5.38c0-1.31,1.09-2.37,2.44-2.37s2.44,1.06,2.44,2.37h5.38c0-1.31,1.09-2.37,2.44-2.37s2.44,1.06,2.44,2.37h5.38c0-1.31,1.09-2.37,2.44-2.37s2.44,1.06,2.44,2.37h5.38c0-1.31,1.09-2.37,2.44-2.37s2.44,1.06,2.44,2.37h5.38c0-1.31,1.09-2.37,2.44-2.37s2.44,1.06,2.44,2.37h4.09c0-4.15,3.46-7.51,7.73-7.51V56.84c-4.25,0-7.69-3.33-7.72-7.45.04-4.13,3.48-7.47,7.72-7.47ZM13.99,51.7c-1.32,0-2.39-1.03-2.43-2.3.04-1.28,1.11-2.31,2.43-2.31s2.39,1.03,2.43,2.31c-.04,1.28-1.11,2.3-2.43,2.3ZM24.24,51.7c-1.32,0-2.39-1.03-2.43-2.3.04-1.28,1.11-2.31,2.43-2.31s2.39,1.03,2.43,2.31c-.04,1.28-1.11,2.3-2.43,2.3ZM34.48,51.7c-1.32,0-2.39-1.03-2.43-2.3.04-1.28,1.11-2.31,2.43-2.31s2.39,1.03,2.43,2.31c-.04,1.28-1.11,2.3-2.43,2.3ZM44.73,51.7c-1.32,0-2.39-1.03-2.43-2.3.04-1.28,1.11-2.31,2.43-2.31s2.39,1.03,2.43,2.31c-.04,1.28-1.11,2.3-2.43,2.3ZM54.98,51.7c-1.32,0-2.39-1.03-2.43-2.3.04-1.28,1.11-2.31,2.43-2.31s2.39,1.03,2.43,2.31c-.04,1.28-1.11,2.3-2.43,2.3ZM65.23,51.7c-1.32,0-2.39-1.03-2.43-2.3.04-1.28,1.11-2.31,2.43-2.31s2.39,1.03,2.43,2.31c-.04,1.28-1.11,2.3-2.43,2.3ZM75.48,51.7c-1.32,0-2.39-1.03-2.43-2.3.04-1.28,1.11-2.31,2.43-2.31s2.39,1.03,2.43,2.31c-.04,1.28-1.11,2.3-2.43,2.3Z"/>
  <path class="cls-8" d="M78.74,53.16H10.72c-1.18,3.18-3.77,5.7-7.04,6.84v99.31c3.27,1.14,5.86,3.67,7.04,6.84h68.02c1.18-3.18,3.77-5.7,7.04-6.84V60.01c-3.27-1.14-5.86-3.67-7.04-6.84ZM4.67,60.66c3.04-1.25,5.44-3.59,6.73-6.54h0c-1.29,2.95-3.69,5.29-6.73,6.54h0ZM84.8,60.66c-3.04-1.25-5.44-3.59-6.73-6.54h0c1.29,2.95,3.69,5.29,6.73,6.54h0Z"/>
  <path class="cls-8" d="M78.74,3.84H10.72c-1.18,3.18-3.77,5.7-7.04,6.84v27.95c3.27,1.14,5.86,3.67,7.04,6.84h68.02c1.18-3.18,3.77-5.7,7.04-6.84V10.68c-3.27-1.14-5.86-3.67-7.04-6.84ZM9.5,7.83c.77-.91,1.41-1.93,1.89-3.04h66.68c.48,1.11,1.12,2.13,1.89,3.04.77.91,1.67,1.71,2.68,2.37-1.01-.66-1.91-1.46-2.68-2.37s-1.41-1.93-1.89-3.04H11.39c-.48,1.11-1.12,2.13-1.89,3.04-.77.91-1.67,1.71-2.68,2.37,1.01-.66,1.91-1.46,2.68-2.37Z"/>
  <g>
    <rect class="cls-5" x="41.26" y="18.42" width="1.02" height="13.86"/>
    <rect class="cls-5" x="43.43" y="18.42" width="4.21" height="13.86"/>
    <rect class="cls-5" x="37.69" y="18.42" width="2.42" height="13.86"/>
    <rect class="cls-5" x="59.11" y="18.42" width="1.26" height="13.86"/>
    <rect class="cls-5" x="53.99" y="18.42" width="3.96" height="13.86"/>
    <rect class="cls-5" x="51.82" y="18.42" width="1.02" height="13.86"/>
    <rect class="cls-5" x="48.8" y="18.42" width="1.87" height="13.86"/>
    <rect class="cls-5" x="19.59" y="18.42" width="1.02" height="13.86"/>
    <rect class="cls-5" x="14.89" y="18.42" width="3.55" height="13.86"/>
    <rect class="cls-5" x="27.13" y="18.42" width="1.87" height="13.86"/>
    <rect class="cls-5" x="21.76" y="18.42" width="4.21" height="13.86"/>
    <rect class="cls-5" x="30.15" y="18.42" width="1.02" height="13.86"/>
    <rect class="cls-5" x="32.32" y="18.42" width="4.21" height="13.86"/>
    <rect class="cls-5" x="65.62" y="18.42" width="1.02" height="13.86"/>
    <rect class="cls-5" x="61.53" y="18.42" width="2.94" height="13.86"/>
    <rect class="cls-5" x="73.16" y="18.42" width="1.95" height="13.86"/>
    <rect class="cls-5" x="67.8" y="18.42" width="4.21" height="13.86"/>
  </g>
  <g>
    <text class="cls-3" transform="translate(16.06 15.96)"><tspan class="cls-2" x="0" y="0">THURS</tspan><tspan class="cls-6" x="18.7" y="0">D</tspan><tspan class="cls-10" x="22.47" y="0">A</tspan><tspan class="cls-9" x="26" y="0">Y</tspan><tspan class="cls-1" x="29.36" y="0">, 09</tspan></text>
    <text class="cls-4" transform="translate(55.69 14.29) scale(.59)"><tspan x="0" y="0">TH</tspan></text>
    <text class="cls-3" transform="translate(60.1 15.96)"><tspan class="cls-1" x="0" y="0" xml:space="preserve"> M</tspan><tspan class="cls-10" x="6.43" y="0">A</tspan><tspan class="cls-1" x="9.95" y="0">Y</tspan></text>
  </g>
</svg>