<?xml version="1.0" encoding="UTF-8"?>
<svg id="OBJECTS" xmlns="http://www.w3.org/2000/svg" xmlns:xlink="http://www.w3.org/1999/xlink" viewBox="0 0 90 170">
  <defs>
    <style>
      .cls-1 {
        clip-path: url(#clippath);
      }

      .cls-2 {
        fill: none;
      }

      .cls-2, .cls-3, .cls-4, .cls-5, .cls-6, .cls-7, .cls-8 {
        stroke-width: 0px;
      }

      .cls-3 {
        fill: url(#linear-gradient);
      }

      .cls-4 {
        fill: #c93;
      }

      .cls-9 {
        clip-path: url(#clippath-1);
      }

      .cls-10 {
        clip-path: url(#clippath-2);
      }

      .cls-5 {
        fill: #fff;
        opacity: .5;
      }

      .cls-6 {
        fill: url(#linear-gradient-4);
      }

      .cls-7 {
        fill: url(#linear-gradient-2);
      }

      .cls-8 {
        fill: url(#linear-gradient-3);
      }
    </style>
    <linearGradient id="linear-gradient" x1="-2.44" y1="-5.06" x2="95.34" y2="181.63" gradientUnits="userSpaceOnUse">
      <stop offset="0" stop-color="#ffd02a"/>
      <stop offset=".34" stop-color="#7f7100"/>
      <stop offset=".74" stop-color="#ffe35e"/>
      <stop offset="1" stop-color="#2a2900"/>
    </linearGradient>
    <clipPath id="clippath">
      <path class="cls-2" d="M42.28,18.42v13.86h-1.02v-13.86h1.02ZM43.43,18.42v13.86h4.21v-13.86h-4.21ZM37.69,18.42v13.86h2.42v-13.86h-2.42ZM59.11,18.42v13.86h1.26v-13.86h-1.26ZM53.99,18.42v13.86h3.96v-13.86h-3.96ZM51.82,18.42v13.86h1.02v-13.86h-1.02ZM48.8,18.42v13.86h1.87v-13.86h-1.87ZM19.59,18.42v13.86h1.02v-13.86h-1.02ZM14.89,18.42v13.86h3.55v-13.86h-3.55ZM27.13,18.42v13.86h1.87v-13.86h-1.87ZM21.76,18.42v13.86h4.21v-13.86h-4.21ZM30.15,18.42v13.86h1.02v-13.86h-1.02ZM32.32,18.42v13.86h4.21v-13.86h-4.21ZM65.62,18.42v13.86h1.02v-13.86h-1.02ZM61.53,18.42v13.86h2.94v-13.86h-2.94ZM75.11,18.42h-1.95v13.86h1.95v-13.86ZM67.8,18.42v13.86h4.21v-13.86h-4.21Z"/>
    </clipPath>
    <linearGradient id="linear-gradient-2" x1="33.96" y1="4.81" x2="55.67" y2="46.25" xlink:href="#linear-gradient"/>
    <clipPath id="clippath-1">
      <path class="cls-2" d="M15.24,13.26h-1.13v-.2h3.35v.2h-1.13v3.29h-1.09v-3.29ZM20.38,14.9h-1.17v1.65h-1.09v-3.29h-.25v-.2h1.34v1.64h1.17v-1.64h1.09v3.49h-1.09v-1.65ZM23.49,13.06v3.18c.2.02.39.06.59.11.19.06.39.09.58.1v-3.39h1.09v3.49c-.54.15-1.13.15-1.67,0-.44-.13-.74-.12-.84-.12-.17,0-.35.02-.52.04l-.31.08v-3.29h-.25v-.2h1.34ZM30.04,13.06v2.18h-.54l.94,1.31h-1.24l-.94-1.31h-.48v1.31h-1.09v-3.29h-.25v-.2h3.6ZM27.78,15.03h1.17v-1.78h-1.17v1.78ZM34.28,13.96h-1.09v-.7h-1.11v1.4h2.15v1.89c-.28.08-.55.12-.82.12s-.55-.04-.82-.12c-.28-.08-.55-.12-.82-.12s-.55.04-.82.12v-.95h1.09v.65c.19.01.37.05.56.1.18.05.36.08.56.1v-1.6h-2.15v-1.6h-.25v-.2h3.54v.9ZM37.88,13.06c.38,0,.52.2.52.52v2.97h-.01c-.27.08-.53.12-.81.12-.01,0-.31.03-.85-.12-.54-.16-1.13-.16-1.68,0v-3.29h-.25v-.2h3.08ZM36.15,13.26v2.98c.2.02.39.06.59.11.19.06.39.09.58.1v-2.88c0-.24-.08-.31-.31-.31h-.86ZM41.46,13.06l1.23,3.49h-1.16l-.39-1.09h-1.5l-.38,1.09h-.26l1.17-3.29h-.25v-.2h1.53ZM39.73,15.26h1.36l-.68-1.91-.68,1.91ZM44.16,15.13l-1.16-2.08h1.16l.92,1.65,1.08-1.65h.24l-1.16,1.78v1.71h-1.09v-1.41ZM47.14,15.46h1.09v1.09l-.71.54h-.2l.32-.54h-.5v-1.09ZM53.78,13.06v3.49c-.27.07-.54.11-.81.11s-.54-.04-.81-.11c-.27-.08-.54-.12-.81-.12s-.54.04-.81.12v-3.49h3.23ZM52.69,16.44v-3.19h-1.06v2.98c.17.02.35.05.53.1.18.06.35.08.53.1ZM55.53,16.24c.17.02.35.05.53.1.17.06.35.08.53.1v-1.4h-2.15v-1.99h3.23v3.49h-.01c-.26.08-.52.11-.79.11s-.54-.04-.82-.11c-.27-.08-.54-.12-.81-.12s-.54.04-.81.12v-.9h1.09v.59ZM55.53,14.85h1.06v-1.59h-1.06v1.59ZM58.84,14.44h-.68v-.12h2v.12h-.68v1.98h-.65v-1.98ZM61.84,15.43h-.7v.99h-.65v-1.98h-.15v-.12h.8v.99h.7v-.99h.65v2.1h-.65v-.99ZM65.72,16.54l-.99-2.93v2.93h-.2v-3.29h-.25v-.2h1.35l.87,2.55.82-2.55h1.09v3.49h-1.07v-2.92l-.94,2.92h-.68ZM71.32,13.06l1.23,3.49h-1.16l-.39-1.09h-1.49l-.38,1.09h-.26l1.16-3.29h-.25v-.2h1.53ZM69.59,15.26h1.35l-.68-1.91-.68,1.91ZM73.89,15.13l-1.16-2.08h1.16l.92,1.65,1.08-1.65h.24l-1.16,1.78v1.71h-1.09v-1.41Z"/>
    </clipPath>
    <linearGradient id="linear-gradient-3" x1="33.77" y1="-5.26" x2="55.47" y2="36.18" xlink:href="#linear-gradient"/>
    <clipPath id="clippath-2">
      <path class="cls-2" d="M56.62,87.75v15.66h-3.89l6.77,9.43h-8.89l-6.77-9.43h-3.42v9.43h-7.81v-23.65h-1.8v-1.44h25.81ZM40.43,101.97h8.39v-12.78h-8.39v12.78Z"/>
    </clipPath>
    <linearGradient id="linear-gradient-4" x1="31.54" y1="76.33" x2="56.64" y2="124.25" xlink:href="#linear-gradient"/>
  </defs>
  <path class="cls-3" d="M89.73,41.92V7.53c-4.27,0-7.73-3.37-7.73-7.53h-4.09c0,1.31-1.09,2.37-2.44,2.37s-2.44-1.06-2.44-2.37h-5.38c0,1.31-1.09,2.37-2.44,2.37s-2.44-1.06-2.44-2.37h-5.38c0,1.31-1.09,2.37-2.44,2.37s-2.44-1.06-2.44-2.37h-5.38c0,1.31-1.09,2.37-2.44,2.37s-2.44-1.06-2.44-2.37h-5.38c0,1.31-1.09,2.37-2.44,2.37s-2.44-1.06-2.44-2.37h-5.38c0,1.31-1.09,2.37-2.44,2.37s-2.44-1.06-2.44-2.37h-5.38c0,1.31-1.09,2.37-2.44,2.37s-2.44-1.06-2.44-2.37h-4.09c0,4.16-3.46,7.53-7.73,7.53v34.39c4.25,0,7.69,3.34,7.72,7.47-.04,4.12-3.48,7.45-7.72,7.45v105.65c4.27,0,7.73,3.36,7.73,7.51h4.09c0-1.31,1.09-2.37,2.44-2.37s2.44,1.06,2.44,2.37h5.38c0-1.31,1.09-2.37,2.44-2.37s2.44,1.06,2.44,2.37h5.38c0-1.31,1.09-2.37,2.44-2.37s2.44,1.06,2.44,2.37h5.38c0-1.31,1.09-2.37,2.44-2.37s2.44,1.06,2.44,2.37h5.38c0-1.31,1.09-2.37,2.44-2.37s2.44,1.06,2.44,2.37h5.38c0-1.31,1.09-2.37,2.44-2.37s2.44,1.06,2.44,2.37h5.38c0-1.31,1.09-2.37,2.44-2.37s2.44,1.06,2.44,2.37h4.09c0-4.15,3.46-7.51,7.73-7.51V56.84c-4.25,0-7.69-3.33-7.72-7.45.04-4.13,3.48-7.47,7.72-7.47ZM13.99,51.7c-1.32,0-2.39-1.03-2.43-2.3.04-1.28,1.11-2.31,2.43-2.31s2.39,1.03,2.43,2.31c-.04,1.28-1.11,2.3-2.43,2.3ZM24.24,51.7c-1.32,0-2.39-1.03-2.43-2.3.04-1.28,1.11-2.31,2.43-2.31s2.39,1.03,2.43,2.31c-.04,1.28-1.11,2.3-2.43,2.3ZM34.48,51.7c-1.32,0-2.39-1.03-2.43-2.3.04-1.28,1.11-2.31,2.43-2.31s2.39,1.03,2.43,2.31c-.04,1.28-1.11,2.3-2.43,2.3ZM44.73,51.7c-1.32,0-2.39-1.03-2.43-2.3.04-1.28,1.11-2.31,2.43-2.31s2.39,1.03,2.43,2.31c-.04,1.28-1.11,2.3-2.43,2.3ZM54.98,51.7c-1.32,0-2.39-1.03-2.43-2.3.04-1.28,1.11-2.31,2.43-2.31s2.39,1.03,2.43,2.31c-.04,1.28-1.11,2.3-2.43,2.3ZM65.23,51.7c-1.32,0-2.39-1.03-2.43-2.3.04-1.28,1.11-2.31,2.43-2.31s2.39,1.03,2.43,2.31c-.04,1.28-1.11,2.3-2.43,2.3ZM75.48,51.7c-1.32,0-2.39-1.03-2.43-2.3.04-1.28,1.11-2.31,2.43-2.31s2.39,1.03,2.43,2.31c-.04,1.28-1.11,2.3-2.43,2.3Z"/>
  <path class="cls-5" d="M78.74,53.16H10.72c-1.18,3.18-3.77,5.7-7.04,6.84v99.31c3.27,1.14,5.86,3.67,7.04,6.84h68.02c1.18-3.18,3.77-5.7,7.04-6.84V60.01c-3.27-1.14-5.86-3.67-7.04-6.84ZM4.67,60.66c3.04-1.25,5.44-3.59,6.73-6.54h0c-1.29,2.95-3.69,5.29-6.73,6.54h0ZM84.8,60.66c-3.04-1.25-5.44-3.59-6.73-6.54h0c1.29,2.95,3.69,5.29,6.73,6.54h0Z"/>
  <path class="cls-5" d="M78.74,3.84H10.72c-1.18,3.18-3.77,5.7-7.04,6.84v27.95c3.27,1.14,5.86,3.67,7.04,6.84h68.02c1.18-3.18,3.77-5.7,7.04-6.84V10.68c-3.27-1.14-5.86-3.67-7.04-6.84ZM9.5,7.83c.77-.91,1.41-1.93,1.89-3.04h66.68c.48,1.11,1.12,2.13,1.89,3.04.77.91,1.67,1.71,2.68,2.37-1.01-.66-1.91-1.46-2.68-2.37s-1.41-1.93-1.89-3.04H11.39c-.48,1.11-1.12,2.13-1.89,3.04-.77.91-1.67,1.71-2.68,2.37,1.01-.66,1.91-1.46,2.68-2.37Z"/>
  <g class="cls-1">
    <rect class="cls-7" x="11.56" y="16.54" width="66.51" height="17.97"/>
  </g>
  <g class="cls-9">
    <rect class="cls-8" x="11.36" y="6.48" width="66.51" height="17.97"/>
  </g>
  <g class="cls-10">
    <rect class="cls-4" x="-1.7" y="63.84" width="80.25" height="65.66"/>
    <rect class="cls-6" x="19.36" y="82.71" width="49.46" height="35.16"/>
  </g>
</svg>