<?xml version="1.0" encoding="UTF-8"?>
<svg id="OBJECTS" xmlns="http://www.w3.org/2000/svg" xmlns:xlink="http://www.w3.org/1999/xlink" viewBox="0 0 90 170">
  <defs>
    <style>
      .cls-1 {
        fill: #aae8bf;
      }

      .cls-1, .cls-2, .cls-3, .cls-4, .cls-5, .cls-6, .cls-7, .cls-8, .cls-9, .cls-10, .cls-11, .cls-12, .cls-13, .cls-14, .cls-15, .cls-16, .cls-17, .cls-18, .cls-19, .cls-20, .cls-21, .cls-22, .cls-23, .cls-24, .cls-25, .cls-26, .cls-27, .cls-28, .cls-29, .cls-30, .cls-31, .cls-32, .cls-33, .cls-34, .cls-35, .cls-36, .cls-37, .cls-38, .cls-39, .cls-40, .cls-41, .cls-42, .cls-43, .cls-44, .cls-45, .cls-46, .cls-47, .cls-48, .cls-49, .cls-50, .cls-51, .cls-52, .cls-53, .cls-54, .cls-55, .cls-56, .cls-57, .cls-58, .cls-59, .cls-60, .cls-61, .cls-62, .cls-63, .cls-64, .cls-65, .cls-66, .cls-67, .cls-68, .cls-69, .cls-70, .cls-71, .cls-72, .cls-73, .cls-74, .cls-75, .cls-76, .cls-77, .cls-78, .cls-79, .cls-80, .cls-81, .cls-82, .cls-83, .cls-84, .cls-85, .cls-86, .cls-87, .cls-88, .cls-89, .cls-90, .cls-91, .cls-92, .cls-93, .cls-94, .cls-95, .cls-96, .cls-97, .cls-98, .cls-99, .cls-100, .cls-101, .cls-102, .cls-103, .cls-104, .cls-105, .cls-106, .cls-107, .cls-108, .cls-109, .cls-110, .cls-111, .cls-112, .cls-113, .cls-114, .cls-115, .cls-116, .cls-117, .cls-118, .cls-119, .cls-120, .cls-121, .cls-122, .cls-123, .cls-124, .cls-125, .cls-126, .cls-127, .cls-128, .cls-129, .cls-130, .cls-131, .cls-132, .cls-133, .cls-134, .cls-135, .cls-136, .cls-137, .cls-138, .cls-139, .cls-140, .cls-141, .cls-142, .cls-143, .cls-144, .cls-145, .cls-146, .cls-147, .cls-148, .cls-149, .cls-150, .cls-151, .cls-152, .cls-153, .cls-154, .cls-155, .cls-156, .cls-157, .cls-158, .cls-159, .cls-160, .cls-161, .cls-162, .cls-163, .cls-164, .cls-165, .cls-166, .cls-167, .cls-168, .cls-169, .cls-170, .cls-171, .cls-172, .cls-173, .cls-174, .cls-175, .cls-176, .cls-177, .cls-178, .cls-179, .cls-180, .cls-181, .cls-182, .cls-183, .cls-184, .cls-185, .cls-186, .cls-187, .cls-188, .cls-189, .cls-190, .cls-191, .cls-192, .cls-193, .cls-194, .cls-195, .cls-196, .cls-197, .cls-198, .cls-199, .cls-200, .cls-201, .cls-202 {
        stroke-width: 0px;
      }

      .cls-2 {
        fill: #c466f3;
      }

      .cls-3 {
        fill: #9bd7d8;
      }

      .cls-4 {
        fill: #9887f7;
      }

      .cls-5 {
        fill: #8e9ffa;
      }

      .cls-6 {
        fill: #c160f3;
      }

      .cls-7 {
        fill: #95d0e1;
      }

      .cls-8 {
        fill: #86b5fc;
      }

      .cls-9 {
        fill: #9d79f6;
      }

      .cls-10 {
        fill: #ac65f4;
      }

      .cls-11 {
        fill: #9885f7;
      }

      .cls-12 {
        fill: #b462f4;
      }

      .cls-13 {
        fill: #c263f3;
      }

      .cls-14 {
        fill: url(#New_Gradient_Swatch_1);
      }

      .cls-15 {
        fill: #c76cf2;
      }

      .cls-16 {
        fill: #c364f3;
      }

      .cls-17 {
        fill: #c76df2;
      }

      .cls-18 {
        fill: #87b2fc;
      }

      .cls-19 {
        fill: #a668f4;
      }

      .cls-20 {
        fill: #a569f4;
      }

      .cls-21 {
        fill: #a9e7c1;
      }

      .cls-22 {
        fill: #83bbfd;
      }

      .cls-23 {
        fill: #aeedb8;
      }

      .cls-203 {
        clip-path: url(#clippath);
      }

      .cls-24 {
        fill: #8bc5f1;
      }

      .cls-25 {
        fill: none;
      }

      .cls-26 {
        fill: #be5df4;
      }

      .cls-27 {
        fill: #a2dfcc;
      }

      .cls-28 {
        fill: #9491f8;
      }

      .cls-29 {
        fill: #98d4dc;
      }

      .cls-30 {
        fill: #85b7fc;
      }

      .cls-31 {
        fill: #9e77f5;
      }

      .cls-32 {
        fill: #a4e1c8;
      }

      .cls-33 {
        fill: #a26df4;
      }

      .cls-34 {
        fill: #99d5db;
      }

      .cls-35 {
        fill: #c161f3;
      }

      .cls-36 {
        fill: #8ca5fa;
      }

      .cls-37 {
        fill: #bb5ef4;
      }

      .cls-38 {
        fill: #85befa;
      }

      .cls-39 {
        fill: #a469f4;
      }

      .cls-40 {
        fill: #84bdfc;
      }

      .cls-41 {
        fill: #96d2df;
      }

      .cls-42 {
        fill: #9886f7;
      }

      .cls-43 {
        fill: #a6e4c5;
      }

      .cls-44 {
        fill: url(#linear-gradient);
      }

      .cls-45 {
        fill: #88c2f5;
      }

      .cls-46 {
        fill: #adecba;
      }

      .cls-47 {
        fill: #86bff9;
      }

      .cls-48 {
        fill: #94cfe2;
      }

      .cls-49 {
        fill: #9dd9d5;
      }

      .cls-50 {
        fill: #bf5cf4;
      }

      .cls-51 {
        fill: #c569f2;
      }

      .cls-52 {
        fill: #9788f7;
      }

      .cls-53 {
        fill: #c05ff4;
      }

      .cls-54 {
        fill: #84bdfb;
      }

      .cls-55 {
        fill: #90cae9;
      }

      .cls-56 {
        fill: #9a82f7;
      }

      .cls-57 {
        fill: #87c0f7;
      }

      .cls-58 {
        fill: #afeeb7;
      }

      .cls-59 {
        fill: #a2dfcb;
      }

      .cls-60 {
        fill: #8ea0fa;
      }

      .cls-61 {
        fill: #94cfe3;
      }

      .cls-62 {
        fill: #a8e6c2;
      }

      .cls-63 {
        fill: #a1decd;
      }

      .cls-64 {
        fill: #c86ef1;
      }

      .cls-65 {
        fill: #bc5ef4;
      }

      .cls-66 {
        fill: #a768f4;
      }

      .cls-67 {
        fill: #9d7af6;
      }

      .cls-68 {
        fill: #9297f9;
      }

      .cls-69 {
        fill: #a867f4;
      }

      .cls-70 {
        fill: #b760f4;
      }

      .cls-71 {
        fill: #9fdcd0;
      }

      .cls-72 {
        fill: #86b4fc;
      }

      .cls-73 {
        fill: #96d1e0;
      }

      .cls-74 {
        fill: #8ca6fb;
      }

      .cls-75 {
        fill: #9789f7;
      }

      .cls-76 {
        fill: #8ba9fb;
      }

      .cls-77 {
        fill: #8ea1fa;
      }

      .cls-78 {
        fill: #9490f8;
      }

      .cls-79 {
        fill: #a0ddce;
      }

      .cls-80 {
        fill: #89aefb;
      }

      .cls-81 {
        fill: #b661f4;
      }

      .cls-82 {
        fill: #a36af4;
      }

      .cls-83 {
        fill: #9b7ff6;
      }

      .cls-84 {
        fill: #8fc9eb;
      }

      .cls-85 {
        fill: #909af9;
      }

      .cls-86 {
        fill: #85b8fd;
      }

      .cls-87 {
        fill: #92cde6;
      }

      .cls-88 {
        fill: #8bc5f0;
      }

      .cls-89 {
        fill: #c365f3;
      }

      .cls-90 {
        fill: #909cf9;
      }

      .cls-204 {
        clip-path: url(#clippath-1);
      }

      .cls-205 {
        clip-path: url(#clippath-2);
      }

      .cls-91 {
        fill: #c05ef4;
      }

      .cls-92 {
        fill: url(#_무제_그라디언트_88);
      }

      .cls-93 {
        fill: url(#_무제_그라디언트_93);
      }

      .cls-94 {
        fill: #8dc8ed;
      }

      .cls-95 {
        fill: #89acfb;
      }

      .cls-96 {
        fill: #a170f5;
      }

      .cls-97 {
        fill: #9295f9;
      }

      .cls-98 {
        fill: #9296f9;
      }

      .cls-99 {
        fill: #958ef8;
      }

      .cls-100 {
        fill: #b362f4;
      }

      .cls-101 {
        fill: #87b3fc;
      }

      .cls-102 {
        fill: #9ad6d9;
      }

      .cls-103 {
        fill: #968cf8;
      }

      .cls-104 {
        fill: #85b6fc;
      }

      .cls-105 {
        fill: #88affc;
      }

      .cls-106 {
        fill: #abe9be;
      }

      .cls-107 {
        fill: #a16ff5;
      }

      .cls-108 {
        fill: #a072f5;
      }

      .cls-109 {
        fill: #b263f4;
      }

      .cls-110 {
        fill: #af64f4;
      }

      .cls-111 {
        fill: #8da3fa;
      }

      .cls-112 {
        fill: #aa66f4;
      }

      .cls-113 {
        fill: #a7e4c4;
      }

      .cls-114 {
        fill: #a26cf4;
      }

      .cls-115 {
        fill: #9bd7d7;
      }

      .cls-116 {
        fill: #9e76f5;
      }

      .cls-117 {
        fill: #89adfb;
      }

      .cls-118 {
        fill: #958df8;
      }

      .cls-119 {
        fill: #9984f7;
      }

      .cls-120 {
        fill: #9ddad4;
      }

      .cls-121 {
        fill: #89c2f4;
      }

      .cls-122 {
        fill: #8ba8fb;
      }

      .cls-123 {
        fill: #87c1f6;
      }

      .cls-124 {
        fill: #c262f3;
      }

      .cls-125 {
        fill: #97d3dd;
      }

      .cls-126 {
        fill: #8aabfb;
      }

      .cls-127 {
        fill: #8ac4f2;
      }

      .cls-128 {
        fill: #b063f4;
      }

      .cls-129 {
        fill: #9a80f6;
      }

      .cls-130 {
        fill: #9edad3;
      }

      .cls-131 {
        fill: #aeecb9;
      }

      .cls-132 {
        fill: #c66bf2;
      }

      .cls-133 {
        fill: #a4e1c9;
      }

      .cls-134 {
        fill: #9d78f6;
      }

      .cls-135 {
        fill: #86c0f8;
      }

      .cls-136 {
        fill: #97d2de;
      }

      .cls-137 {
        fill: #948ff8;
      }

      .cls-138 {
        fill: #8ca4fa;
      }

      .cls-139 {
        fill: #adebbb;
      }

      .cls-140 {
        fill: #c467f2;
      }

      .cls-141 {
        fill: #8ba7fb;
      }

      .cls-142 {
        fill: #88b0fc;
      }

      .cls-143 {
        fill: #8da2fa;
      }

      .cls-144 {
        fill: #ba5ff4;
      }

      .cls-145 {
        fill: #9b7ef6;
      }

      .cls-146 {
        fill: #fff;
        opacity: .5;
      }

      .cls-147 {
        fill: #a16ef4;
      }

      .cls-148 {
        fill: #91cce7;
      }

      .cls-149 {
        fill: #a36bf4;
      }

      .cls-150 {
        fill: #909bf9;
      }

      .cls-151 {
        fill: #9b7df6;
      }

      .cls-152 {
        fill: #9198f9;
      }

      .cls-153 {
        fill: #ab66f4;
      }

      .cls-154 {
        fill: #abe9bd;
      }

      .cls-155 {
        fill: #a6e3c6;
      }

      .cls-156 {
        fill: #9392f8;
      }

      .cls-157 {
        fill: #9199f9;
      }

      .cls-158 {
        fill: #9f75f5;
      }

      .cls-159 {
        fill: #8ec8ec;
      }

      .cls-160 {
        fill: #87b1fc;
      }

      .cls-161 {
        fill: #90cbe8;
      }

      .cls-162 {
        fill: #92cde5;
      }

      .cls-163 {
        fill: #a7e5c3;
      }

      .cls-164 {
        fill: #a9e7c0;
      }

      .cls-165 {
        fill: #bd5df4;
      }

      .cls-166 {
        fill: #83bcfd;
      }

      .cls-167 {
        fill: #ae64f4;
      }

      .cls-168 {
        fill: #9cd8d6;
      }

      .cls-169 {
        fill: #c568f2;
      }

      .cls-170 {
        fill: #b860f4;
      }

      .cls-171 {
        fill: #84bafd;
      }

      .cls-172 {
        fill: #a5e2c7;
      }

      .cls-173 {
        fill: #9c7cf6;
      }

      .cls-174 {
        fill: #a3e0ca;
      }

      .cls-175 {
        fill: #89c3f3;
      }

      .cls-176 {
        fill: #bf5df4;
      }

      .cls-177 {
        fill: #8fcaea;
      }

      .cls-178 {
        fill: #84b9fd;
      }

      .cls-179 {
        fill: #8aaafb;
      }

      .cls-180 {
        fill: #968bf8;
      }

      .cls-181 {
        fill: #8dc7ee;
      }

      .cls-182 {
        fill: #a967f4;
      }

      .cls-183 {
        fill: #9a81f7;
      }

      .cls-184 {
        fill: #9c7bf6;
      }

      .cls-185 {
        fill: #9983f7;
      }

      .cls-186 {
        fill: #c66af2;
      }

      .cls-187 {
        fill: #9f74f5;
      }

      .cls-188 {
        fill: #a071f5;
      }

      .cls-189 {
        fill: #a0dccf;
      }

      .cls-190 {
        fill: #99d5da;
      }

      .cls-191 {
        fill: #968af8;
      }

      .cls-192 {
        fill: #8f9dfa;
      }

      .cls-193 {
        fill: #8f9efa;
      }

      .cls-194 {
        fill: #b95ff4;
      }

      .cls-195 {
        fill: #9f73f5;
      }

      .cls-196 {
        fill: #8cc6ef;
      }

      .cls-197 {
        fill: #9fdbd2;
      }

      .cls-198 {
        fill: #b561f4;
      }

      .cls-199 {
        fill: #ad65f4;
      }

      .cls-200 {
        fill: #aceabc;
      }

      .cls-201 {
        fill: #9394f9;
      }

      .cls-202 {
        fill: #93cee4;
      }
    </style>
    <linearGradient id="New_Gradient_Swatch_1" data-name="New Gradient Swatch 1" x1="10.25" y1="-.92" x2="80.28" y2="170.92" gradientUnits="userSpaceOnUse">
      <stop offset="0" stop-color="#e1a2ea"/>
      <stop offset=".18" stop-color="#bf5cf4"/>
      <stop offset=".36" stop-color="#a36af4"/>
      <stop offset=".59" stop-color="#83bcfd"/>
      <stop offset=".83" stop-color="#bafaa6"/>
      <stop offset="1" stop-color="#e5fe67"/>
    </linearGradient>
    <linearGradient id="_무제_그라디언트_93" data-name="무제 그라디언트 93" x1="67.41" y1="170.48" x2="23.13" y2="48.84" gradientUnits="userSpaceOnUse">
      <stop offset=".31" stop-color="#ca94ff"/>
      <stop offset="1" stop-color="#d6dbff"/>
    </linearGradient>
    <linearGradient id="_무제_그라디언트_88" data-name="무제 그라디언트 88" x1="55.94" y1="53.97" x2="34.6" y2="-4.66" gradientUnits="userSpaceOnUse">
      <stop offset="0" stop-color="#e994ff"/>
      <stop offset="0" stop-color="#d9d1ff"/>
      <stop offset=".52" stop-color="#d6dbff"/>
    </linearGradient>
    <clipPath id="clippath">
      <path class="cls-25" d="M43.08,18.53v13.86h-1.02v-13.86h1.02ZM44.24,18.53v13.86h4.21v-13.86h-4.21ZM38.49,18.53v13.86h2.42v-13.86h-2.42ZM59.91,18.53v13.86h1.26v-13.86h-1.26ZM54.8,18.53v13.86h3.96v-13.86h-3.96ZM52.63,18.53v13.86h1.02v-13.86h-1.02ZM49.6,18.53v13.86h1.87v-13.86h-1.87ZM20.4,18.53v13.86h1.02v-13.86h-1.02ZM15.69,18.53v13.86h3.55v-13.86h-3.55ZM27.93,18.53v13.86h1.87v-13.86h-1.87ZM22.57,18.53v13.86h4.21v-13.86h-4.21ZM30.96,18.53v13.86h1.02v-13.86h-1.02ZM33.13,18.53v13.86h4.21v-13.86h-4.21ZM66.43,18.53v13.86h1.02v-13.86h-1.02ZM62.33,18.53v13.86h2.94v-13.86h-2.94ZM75.92,18.53h-1.95v13.86h1.95v-13.86ZM68.6,18.53v13.86h4.21v-13.86h-4.21ZM14.77,17.13h1.09v-3.29h1.13v-.2h-3.35v.2h1.13v3.29ZM19.9,17.13h1.09v-3.49h-1.09v1.64h-1.17v-1.64h-1.34v.2h.25v3.29h1.09v-1.65h1.17v1.65ZM21.68,13.64v.2h.25v3.29l.31-.08c.18-.02.35-.04.52-.04.11,0,.4-.01.84.12.54.15,1.13.15,1.67,0v-3.49h-1.09v3.39c-.2-.02-.39-.05-.58-.1-.2-.06-.39-.1-.59-.11v-3.18h-1.34ZM25.97,13.64v.2h.25v3.29h1.09v-1.31h.48l.94,1.31h1.24l-.94-1.31h.54v-2.18h-3.6ZM27.31,13.84h1.17v1.78h-1.17v-1.78ZM33.8,13.64h-3.54v.2h.25v1.6h2.15v1.6c-.2-.02-.38-.06-.56-.1-.19-.06-.37-.09-.56-.1v-.65h-1.09v.95c.28-.08.55-.12.82-.12s.55.04.82.12c.28.08.55.12.82.12s.55-.04.82-.12v-1.89h-2.15v-1.4h1.11v.7h1.09v-.9ZM34.33,13.64v.2h.25v3.29c.54-.16,1.13-.16,1.68,0,.54.15.83.12.85.12.28,0,.54-.04.81-.12h.01v-2.97c0-.33-.14-.52-.52-.52h-3.08ZM36.53,13.84c.24,0,.31.08.31.31v2.88c-.2-.02-.39-.05-.58-.1-.2-.06-.39-.1-.59-.11v-2.98h.86ZM39.46,13.64v.2h.25l-1.16,3.29h.26l.38-1.09h1.5l.39,1.09h1.16l-1.23-3.49h-1.53ZM39.93,13.93l.68,1.91h-1.36l.68-1.91ZM43.69,17.13h1.09v-1.71l1.16-1.78h-.24l-1.08,1.65-.92-1.65h-1.16l1.16,2.08v1.41ZM46.67,17.13h.5l-.32.54h.2l.71-.54v-1.09h-1.09v1.09ZM50.07,13.64v3.49c.27-.08.54-.12.81-.12s.54.04.81.12c.27.07.54.11.81.11s.54-.04.81-.11v-3.49h-3.23ZM51.69,16.93c-.18-.05-.36-.09-.53-.1v-2.98h1.06v3.19c-.18-.02-.35-.04-.53-.1ZM55.06,16.23h-1.09v.9c.27-.08.54-.12.81-.12s.54.04.81.12c.27.07.55.11.82.11s.53-.03.79-.11h.01v-3.49h-3.23v1.99h2.15v1.4c-.18-.02-.36-.04-.53-.1-.18-.05-.36-.09-.53-.1v-.59ZM55.06,13.84h1.06v1.59h-1.06v-1.59ZM58.37,17h.65v-1.98h.68v-.12h-2v.12h.68v1.98ZM61.36,17h.65v-2.1h-.65v.99h-.7v-.99h-.8v.12h.15v1.98h.65v-.99h.7v.99ZM65.92,17.13l.94-2.92v2.92h1.07v-3.49h-1.09l-.82,2.55-.87-2.55h-1.35v.2h.25v3.29h.2v-2.93l.99,2.93h.68ZM69.32,13.64v.2h.25l-1.16,3.29h.26l.38-1.09h1.49l.39,1.09h1.16l-1.23-3.49h-1.53ZM69.79,13.93l.68,1.91h-1.35l.68-1.91ZM73.41,17.13h1.09v-1.71l1.16-1.78h-.24l-1.08,1.65-.92-1.65h-1.16l1.16,2.08v1.41Z"/>
    </clipPath>
    <linearGradient id="linear-gradient" x1="5.04" y1="-23.45" x2="36.43" y2="53.59" gradientTransform="translate(19.19 6.18)" gradientUnits="userSpaceOnUse">
      <stop offset="0" stop-color="#e1a2ea"/>
      <stop offset=".18" stop-color="#bf5cf4"/>
      <stop offset=".36" stop-color="#a36af4"/>
      <stop offset=".59" stop-color="#83bcfd"/>
      <stop offset=".83" stop-color="#bafaa6"/>
      <stop offset="1" stop-color="#e5fe67"/>
    </linearGradient>
    <clipPath id="clippath-1">
      <path class="cls-25" d="M18.35,87.75l7.92,22.35,8.17-22.35h1.83l-9.14,25.09h-8.13l-8.46-23.65h-1.55v-1.44h9.36ZM53.67,112.84c-3.06.97-4.79.97-7.85,0-3.1-.97-4.79-.97-7.88,0v-1.44c1.55-.54,2.7-.76,3.96-.76v-21.45h-3.96v-1.44h15.73v1.44h-3.96v22.93c1.19,0,2.38-.25,3.96-.72v1.44ZM81.71,87.75v15.66h-16.2v9.43h-7.81v-23.65h-1.8v-1.44h25.81ZM65.51,101.97h8.39v-12.78h-8.39v12.78Z"/>
    </clipPath>
    <clipPath id="clippath-2">
      <rect class="cls-25" x="5.08" y="63.84" width="80.25" height="65.66"/>
    </clipPath>
  </defs>
  <g>
    <path class="cls-14" d="M90.27,41.92V7.53c-4.27,0-7.73-3.37-7.73-7.53h-4.09c0,1.31-1.09,2.37-2.44,2.37s-2.44-1.06-2.44-2.37h-5.38c0,1.31-1.09,2.37-2.44,2.37s-2.44-1.06-2.44-2.37h-5.38c0,1.31-1.09,2.37-2.44,2.37s-2.44-1.06-2.44-2.37h-5.38c0,1.31-1.09,2.37-2.44,2.37s-2.44-1.06-2.44-2.37h-5.38c0,1.31-1.09,2.37-2.44,2.37s-2.44-1.06-2.44-2.37h-5.38c0,1.31-1.09,2.37-2.44,2.37s-2.44-1.06-2.44-2.37h-5.38c0,1.31-1.09,2.37-2.44,2.37s-2.44-1.06-2.44-2.37h-4.09c0,4.16-3.46,7.53-7.73,7.53v34.39c4.25,0,7.69,3.34,7.72,7.47-.04,4.12-3.48,7.45-7.72,7.45v105.65c4.27,0,7.73,3.36,7.73,7.51h4.09c0-1.31,1.09-2.37,2.44-2.37s2.44,1.06,2.44,2.37h5.38c0-1.31,1.09-2.37,2.44-2.37s2.44,1.06,2.44,2.37h5.38c0-1.31,1.09-2.37,2.44-2.37s2.44,1.06,2.44,2.37h5.38c0-1.31,1.09-2.37,2.44-2.37s2.44,1.06,2.44,2.37h5.38c0-1.31,1.09-2.37,2.44-2.37s2.44,1.06,2.44,2.37h5.38c0-1.31,1.09-2.37,2.44-2.37s2.44,1.06,2.44,2.37h5.38c0-1.31,1.09-2.37,2.44-2.37s2.44,1.06,2.44,2.37h4.09c0-4.15,3.46-7.51,7.73-7.51V56.84c-4.25,0-7.69-3.33-7.72-7.45.04-4.13,3.48-7.47,7.72-7.47ZM14.53,51.7c-1.32,0-2.39-1.03-2.43-2.3.04-1.28,1.11-2.31,2.43-2.31s2.39,1.03,2.43,2.31c-.04,1.28-1.11,2.3-2.43,2.3ZM24.77,51.7c-1.32,0-2.39-1.03-2.43-2.3.04-1.28,1.11-2.31,2.43-2.31s2.39,1.03,2.43,2.31c-.04,1.28-1.11,2.3-2.43,2.3ZM35.02,51.7c-1.32,0-2.39-1.03-2.43-2.3.04-1.28,1.11-2.31,2.43-2.31s2.39,1.03,2.43,2.31c-.04,1.28-1.11,2.3-2.43,2.3ZM45.27,51.7c-1.32,0-2.39-1.03-2.43-2.3.04-1.28,1.11-2.31,2.43-2.31s2.39,1.03,2.43,2.31c-.04,1.28-1.11,2.3-2.43,2.3ZM55.52,51.7c-1.32,0-2.39-1.03-2.43-2.3.04-1.28,1.11-2.31,2.43-2.31s2.39,1.03,2.43,2.31c-.04,1.28-1.11,2.3-2.43,2.3ZM65.76,51.7c-1.32,0-2.39-1.03-2.43-2.3.04-1.28,1.11-2.31,2.43-2.31s2.39,1.03,2.43,2.31c-.04,1.28-1.11,2.3-2.43,2.3ZM76.01,51.7c-1.32,0-2.39-1.03-2.43-2.3.04-1.28,1.11-2.31,2.43-2.31s2.39,1.03,2.43,2.31c-.04,1.28-1.11,2.3-2.43,2.3Z"/>
    <path class="cls-93" d="M79.28,53.16H11.26c-1.18,3.18-3.77,5.7-7.04,6.84v99.31c3.27,1.14,5.86,3.67,7.04,6.84h68.02c1.18-3.18,3.77-5.7,7.04-6.84V60.01c-3.27-1.14-5.86-3.67-7.04-6.84ZM85.33,158.66c-3.04,1.25-5.44,3.59-6.73,6.54H11.93c-1.29-2.95-3.69-5.29-6.73-6.54V60.66c3.04-1.25,5.44-3.59,6.73-6.54h66.68c1.29,2.95,3.69,5.29,6.73,6.54v98Z"/>
    <path class="cls-92" d="M79.28,3.84H11.26c-1.18,3.18-3.77,5.7-7.04,6.84v27.95c3.27,1.14,5.86,3.67,7.04,6.84h68.02c1.18-3.18,3.77-5.7,7.04-6.84V10.68c-3.27-1.14-5.86-3.67-7.04-6.84ZM85.33,37.98c-3.04,1.25-5.44,3.59-6.73,6.54H11.93c-1.29-2.95-3.69-5.29-6.73-6.54V11.34c3.04-1.25,5.44-3.59,6.73-6.54h66.68c1.29,2.95,3.69,5.29,6.73,6.54v26.64Z"/>
    <path class="cls-146" d="M78.61,54.12c1.29,2.95,3.69,5.29,6.73,6.54v98c-3.04,1.25-5.44,3.59-6.73,6.54H11.93c-1.29-2.95-3.69-5.29-6.73-6.54V60.66c3.04-1.25,5.44-3.59,6.73-6.54h66.68Z"/>
    <path class="cls-146" d="M78.61,4.8c1.29,2.95,3.69,5.29,6.73,6.54v26.64c-3.04,1.25-5.44,3.59-6.73,6.54H11.93c-1.29-2.95-3.69-5.29-6.73-6.54V11.34c3.04-1.25,5.44-3.59,6.73-6.54h66.68Z"/>
    <g class="cls-203">
      <rect class="cls-44" x="-18.16" y="0" width="116.18" height="42.49"/>
    </g>
  </g>
  <g class="cls-204">
    <g class="cls-205">
      <polygon class="cls-64" points="85.31 129.5 85.33 129.45 85.33 129.5 85.31 129.5"/>
      <polygon class="cls-17" points="84.83 129.5 85.33 128.59 85.33 129.45 85.31 129.5 84.83 129.5"/>
      <polygon class="cls-15" points="84.36 129.5 85.33 127.72 85.33 128.59 84.83 129.5 84.36 129.5"/>
      <polygon class="cls-132" points="83.89 129.5 85.33 126.85 85.33 127.72 84.36 129.5 83.89 129.5"/>
      <polygon class="cls-186" points="83.41 129.5 85.33 125.99 85.33 126.85 83.89 129.5 83.41 129.5"/>
      <polygon class="cls-51" points="82.94 129.5 85.33 125.12 85.33 125.99 83.41 129.5 82.94 129.5"/>
      <polygon class="cls-169" points="82.46 129.5 85.33 124.26 85.33 125.12 82.94 129.5 82.46 129.5"/>
      <polygon class="cls-140" points="81.99 129.5 85.33 123.39 85.33 124.26 82.46 129.5 81.99 129.5"/>
      <polygon class="cls-2" points="81.51 129.5 85.33 122.52 85.33 123.39 81.99 129.5 81.51 129.5"/>
      <polygon class="cls-89" points="81.04 129.5 85.33 121.66 85.33 122.52 81.51 129.5 81.04 129.5"/>
      <polygon class="cls-16" points="80.57 129.5 85.33 120.79 85.33 121.66 81.04 129.5 80.57 129.5"/>
      <polygon class="cls-13" points="80.09 129.5 85.33 119.93 85.33 120.79 80.57 129.5 80.09 129.5"/>
      <polygon class="cls-124" points="79.62 129.5 85.33 119.06 85.33 119.93 80.09 129.5 79.62 129.5"/>
      <polygon class="cls-35" points="79.14 129.5 85.33 118.19 85.33 119.06 79.62 129.5 79.14 129.5"/>
      <polygon class="cls-6" points="78.67 129.5 85.33 117.33 85.33 118.19 79.14 129.5 78.67 129.5"/>
      <polygon class="cls-53" points="78.2 129.5 85.33 116.46 85.33 117.33 78.67 129.5 78.2 129.5"/>
      <polygon class="cls-91" points="77.72 129.5 85.33 115.6 85.33 116.46 78.2 129.5 77.72 129.5"/>
      <polygon class="cls-176" points="77.25 129.5 85.33 114.73 85.33 115.6 77.72 129.5 77.25 129.5"/>
      <polygon class="cls-50" points="76.77 129.5 85.33 113.87 85.33 114.73 77.25 129.5 76.77 129.5"/>
      <polygon class="cls-50" points="75.64 129.5 85.33 111.8 85.33 113.87 76.77 129.5 75.64 129.5"/>
      <polygon class="cls-26" points="74.51 129.5 85.33 109.73 85.33 111.8 75.64 129.5 74.51 129.5"/>
      <polygon class="cls-165" points="73.38 129.5 85.33 107.67 85.33 109.73 74.51 129.5 73.38 129.5"/>
      <polygon class="cls-65" points="72.25 129.5 85.33 105.6 85.33 107.67 73.38 129.5 72.25 129.5"/>
      <polygon class="cls-37" points="71.12 129.5 85.33 103.53 85.33 105.6 72.25 129.5 71.12 129.5"/>
      <polygon class="cls-144" points="69.99 129.5 85.33 101.47 85.33 103.53 71.12 129.5 69.99 129.5"/>
      <polygon class="cls-194" points="68.85 129.5 85.33 99.4 85.33 101.47 69.99 129.5 68.85 129.5"/>
      <polygon class="cls-170" points="67.72 129.5 85.33 97.33 85.33 99.4 68.85 129.5 67.72 129.5"/>
      <polygon class="cls-70" points="66.59 129.5 85.33 95.27 85.33 97.33 67.72 129.5 66.59 129.5"/>
      <polygon class="cls-81" points="65.46 129.5 85.33 93.2 85.33 95.27 66.59 129.5 65.46 129.5"/>
      <polygon class="cls-198" points="64.33 129.5 85.33 91.13 85.33 93.2 65.46 129.5 64.33 129.5"/>
      <polygon class="cls-12" points="63.2 129.5 85.33 89.07 85.33 91.13 64.33 129.5 63.2 129.5"/>
      <polygon class="cls-100" points="62.07 129.5 85.33 87 85.33 89.07 63.2 129.5 62.07 129.5"/>
      <polygon class="cls-109" points="60.93 129.5 85.33 84.93 85.33 87 62.07 129.5 60.93 129.5"/>
      <polygon class="cls-128" points="59.8 129.5 85.33 82.87 85.33 84.93 60.93 129.5 59.8 129.5"/>
      <polygon class="cls-110" points="58.67 129.5 85.33 80.8 85.33 82.87 59.8 129.5 58.67 129.5"/>
      <polygon class="cls-167" points="57.54 129.5 85.33 78.73 85.33 80.8 58.67 129.5 57.54 129.5"/>
      <polygon class="cls-199" points="56.41 129.5 85.33 76.67 85.33 78.73 57.54 129.5 56.41 129.5"/>
      <polygon class="cls-10" points="55.28 129.5 85.33 74.6 85.33 76.67 56.41 129.5 55.28 129.5"/>
      <polygon class="cls-153" points="54.15 129.5 85.33 72.53 85.33 74.6 55.28 129.5 54.15 129.5"/>
      <polygon class="cls-112" points="53.01 129.5 85.33 70.47 85.33 72.53 54.15 129.5 53.01 129.5"/>
      <polygon class="cls-182" points="51.88 129.5 85.33 68.4 85.33 70.47 53.01 129.5 51.88 129.5"/>
      <polygon class="cls-69" points="50.75 129.5 85.33 66.33 85.33 68.4 51.88 129.5 50.75 129.5"/>
      <polygon class="cls-66" points="49.62 129.5 85.33 64.27 85.33 66.33 50.75 129.5 49.62 129.5"/>
      <polygon class="cls-19" points="48.49 129.5 84.44 63.84 85.33 63.84 85.33 64.27 49.62 129.5 48.49 129.5"/>
      <polygon class="cls-20" points="47.36 129.5 83.31 63.84 84.44 63.84 48.49 129.5 47.36 129.5"/>
      <polygon class="cls-39" points="46.23 129.5 82.17 63.84 83.31 63.84 47.36 129.5 46.23 129.5"/>
      <polygon class="cls-82" points="45.09 129.5 81.04 63.84 82.17 63.84 46.23 129.5 45.09 129.5"/>
      <polygon class="cls-82" points="44.58 129.5 80.53 63.84 81.04 63.84 45.09 129.5 44.58 129.5"/>
      <polygon class="cls-149" points="44.06 129.5 80.01 63.84 80.53 63.84 44.58 129.5 44.06 129.5"/>
      <polygon class="cls-114" points="43.55 129.5 79.5 63.84 80.01 63.84 44.06 129.5 43.55 129.5"/>
      <polygon class="cls-33" points="43.03 129.5 78.98 63.84 79.5 63.84 43.55 129.5 43.03 129.5"/>
      <polygon class="cls-147" points="42.52 129.5 78.47 63.84 78.98 63.84 43.03 129.5 42.52 129.5"/>
      <polygon class="cls-107" points="42 129.5 77.95 63.84 78.47 63.84 42.52 129.5 42 129.5"/>
      <polygon class="cls-96" points="41.49 129.5 77.44 63.84 77.95 63.84 42 129.5 41.49 129.5"/>
      <polygon class="cls-188" points="40.97 129.5 76.92 63.84 77.44 63.84 41.49 129.5 40.97 129.5"/>
      <polygon class="cls-108" points="40.46 129.5 76.41 63.84 76.92 63.84 40.97 129.5 40.46 129.5"/>
      <polygon class="cls-195" points="39.94 129.5 75.89 63.84 76.41 63.84 40.46 129.5 39.94 129.5"/>
      <polygon class="cls-187" points="39.43 129.5 75.38 63.84 75.89 63.84 39.94 129.5 39.43 129.5"/>
      <polygon class="cls-158" points="38.91 129.5 74.86 63.84 75.38 63.84 39.43 129.5 38.91 129.5"/>
      <polygon class="cls-116" points="38.4 129.5 74.35 63.84 74.86 63.84 38.91 129.5 38.4 129.5"/>
      <polygon class="cls-31" points="37.88 129.5 73.83 63.84 74.35 63.84 38.4 129.5 37.88 129.5"/>
      <polygon class="cls-134" points="37.37 129.5 73.32 63.84 73.83 63.84 37.88 129.5 37.37 129.5"/>
      <polygon class="cls-9" points="36.85 129.5 72.8 63.84 73.32 63.84 37.37 129.5 36.85 129.5"/>
      <polygon class="cls-67" points="36.34 129.5 72.29 63.84 72.8 63.84 36.85 129.5 36.34 129.5"/>
      <polygon class="cls-184" points="35.82 129.5 71.77 63.84 72.29 63.84 36.34 129.5 35.82 129.5"/>
      <polygon class="cls-173" points="35.31 129.5 71.26 63.84 71.77 63.84 35.82 129.5 35.31 129.5"/>
      <polygon class="cls-151" points="34.79 129.5 70.74 63.84 71.26 63.84 35.31 129.5 34.79 129.5"/>
      <polygon class="cls-145" points="34.28 129.5 70.23 63.84 70.74 63.84 34.79 129.5 34.28 129.5"/>
      <polygon class="cls-83" points="33.76 129.5 69.71 63.84 70.23 63.84 34.28 129.5 33.76 129.5"/>
      <polygon class="cls-129" points="33.25 129.5 69.2 63.84 69.71 63.84 33.76 129.5 33.25 129.5"/>
      <polygon class="cls-183" points="32.73 129.5 68.68 63.84 69.2 63.84 33.25 129.5 32.73 129.5"/>
      <polygon class="cls-56" points="32.22 129.5 68.17 63.84 68.68 63.84 32.73 129.5 32.22 129.5"/>
      <polygon class="cls-185" points="31.7 129.5 67.65 63.84 68.17 63.84 32.22 129.5 31.7 129.5"/>
      <polygon class="cls-119" points="31.19 129.5 67.14 63.84 67.65 63.84 31.7 129.5 31.19 129.5"/>
      <polygon class="cls-11" points="30.67 129.5 66.62 63.84 67.14 63.84 31.19 129.5 30.67 129.5"/>
      <polygon class="cls-42" points="30.16 129.5 66.11 63.84 66.62 63.84 30.67 129.5 30.16 129.5"/>
      <polygon class="cls-4" points="29.64 129.5 65.59 63.84 66.11 63.84 30.16 129.5 29.64 129.5"/>
      <polygon class="cls-52" points="29.13 129.5 65.08 63.84 65.59 63.84 29.64 129.5 29.13 129.5"/>
      <polygon class="cls-75" points="28.61 129.5 64.56 63.84 65.08 63.84 29.13 129.5 28.61 129.5"/>
      <polygon class="cls-191" points="28.1 129.5 64.04 63.84 64.56 63.84 28.61 129.5 28.1 129.5"/>
      <polygon class="cls-180" points="27.58 129.5 63.53 63.84 64.04 63.84 28.1 129.5 27.58 129.5"/>
      <polygon class="cls-103" points="27.07 129.5 63.01 63.84 63.53 63.84 27.58 129.5 27.07 129.5"/>
      <polygon class="cls-118" points="26.55 129.5 62.5 63.84 63.01 63.84 27.07 129.5 26.55 129.5"/>
      <polygon class="cls-99" points="26.04 129.5 61.98 63.84 62.5 63.84 26.55 129.5 26.04 129.5"/>
      <polygon class="cls-137" points="25.52 129.5 61.47 63.84 61.98 63.84 26.04 129.5 25.52 129.5"/>
      <polygon class="cls-78" points="25.01 129.5 60.95 63.84 61.47 63.84 25.52 129.5 25.01 129.5"/>
      <polygon class="cls-28" points="24.49 129.5 60.44 63.84 60.95 63.84 25.01 129.5 24.49 129.5"/>
      <polygon class="cls-156" points="23.98 129.5 59.92 63.84 60.44 63.84 24.49 129.5 23.98 129.5"/>
      <polygon class="cls-201" points="23.46 129.5 59.41 63.84 59.92 63.84 23.98 129.5 23.46 129.5"/>
      <polygon class="cls-97" points="22.95 129.5 58.89 63.84 59.41 63.84 23.46 129.5 22.95 129.5"/>
      <polygon class="cls-98" points="22.43 129.5 58.38 63.84 58.89 63.84 22.95 129.5 22.43 129.5"/>
      <polygon class="cls-68" points="21.92 129.5 57.86 63.84 58.38 63.84 22.43 129.5 21.92 129.5"/>
      <polygon class="cls-152" points="21.4 129.5 57.35 63.84 57.86 63.84 21.92 129.5 21.4 129.5"/>
      <polygon class="cls-157" points="20.89 129.5 56.83 63.84 57.35 63.84 21.4 129.5 20.89 129.5"/>
      <polygon class="cls-85" points="20.37 129.5 56.32 63.84 56.83 63.84 20.89 129.5 20.37 129.5"/>
      <polygon class="cls-150" points="19.85 129.5 55.8 63.84 56.32 63.84 20.37 129.5 19.85 129.5"/>
      <polygon class="cls-90" points="19.34 129.5 55.29 63.84 55.8 63.84 19.85 129.5 19.34 129.5"/>
      <polygon class="cls-192" points="18.82 129.5 54.77 63.84 55.29 63.84 19.34 129.5 18.82 129.5"/>
      <polygon class="cls-193" points="18.31 129.5 54.26 63.84 54.77 63.84 18.82 129.5 18.31 129.5"/>
      <polygon class="cls-5" points="17.79 129.5 53.74 63.84 54.26 63.84 18.31 129.5 17.79 129.5"/>
      <polygon class="cls-60" points="17.28 129.5 53.23 63.84 53.74 63.84 17.79 129.5 17.28 129.5"/>
      <polygon class="cls-77" points="16.76 129.5 52.71 63.84 53.23 63.84 17.28 129.5 16.76 129.5"/>
      <polygon class="cls-143" points="16.25 129.5 52.2 63.84 52.71 63.84 16.76 129.5 16.25 129.5"/>
      <polygon class="cls-111" points="15.73 129.5 51.68 63.84 52.2 63.84 16.25 129.5 15.73 129.5"/>
      <polygon class="cls-138" points="15.22 129.5 51.17 63.84 51.68 63.84 15.73 129.5 15.22 129.5"/>
      <polygon class="cls-36" points="14.7 129.5 50.65 63.84 51.17 63.84 15.22 129.5 14.7 129.5"/>
      <polygon class="cls-74" points="14.19 129.5 50.14 63.84 50.65 63.84 14.7 129.5 14.19 129.5"/>
      <polygon class="cls-141" points="13.67 129.5 49.62 63.84 50.14 63.84 14.19 129.5 13.67 129.5"/>
      <polygon class="cls-122" points="13.16 129.5 49.11 63.84 49.62 63.84 13.67 129.5 13.16 129.5"/>
      <polygon class="cls-76" points="12.64 129.5 48.59 63.84 49.11 63.84 13.16 129.5 12.64 129.5"/>
      <polygon class="cls-179" points="12.13 129.5 48.08 63.84 48.59 63.84 12.64 129.5 12.13 129.5"/>
      <polygon class="cls-126" points="11.61 129.5 47.56 63.84 48.08 63.84 12.13 129.5 11.61 129.5"/>
      <polygon class="cls-95" points="11.1 129.5 47.05 63.84 47.56 63.84 11.61 129.5 11.1 129.5"/>
      <polygon class="cls-117" points="10.58 129.5 46.53 63.84 47.05 63.84 11.1 129.5 10.58 129.5"/>
      <polygon class="cls-80" points="10.07 129.5 46.02 63.84 46.53 63.84 10.58 129.5 10.07 129.5"/>
      <polygon class="cls-105" points="9.55 129.5 45.5 63.84 46.02 63.84 10.07 129.5 9.55 129.5"/>
      <polygon class="cls-142" points="9.04 129.5 44.99 63.84 45.5 63.84 9.55 129.5 9.04 129.5"/>
      <polygon class="cls-160" points="8.52 129.5 44.47 63.84 44.99 63.84 9.04 129.5 8.52 129.5"/>
      <polygon class="cls-18" points="8.01 129.5 43.96 63.84 44.47 63.84 8.52 129.5 8.01 129.5"/>
      <polygon class="cls-101" points="7.49 129.5 43.44 63.84 43.96 63.84 8.01 129.5 7.49 129.5"/>
      <polygon class="cls-72" points="6.98 129.5 42.93 63.84 43.44 63.84 7.49 129.5 6.98 129.5"/>
      <polygon class="cls-8" points="6.46 129.5 42.41 63.84 42.93 63.84 6.98 129.5 6.46 129.5"/>
      <polygon class="cls-104" points="5.95 129.5 41.9 63.84 42.41 63.84 6.46 129.5 5.95 129.5"/>
      <polygon class="cls-30" points="5.43 129.5 41.38 63.84 41.9 63.84 5.95 129.5 5.43 129.5"/>
      <polygon class="cls-86" points="5.08 129.2 40.87 63.84 41.38 63.84 5.43 129.5 5.08 129.5 5.08 129.2"/>
      <polygon class="cls-178" points="5.08 128.26 40.35 63.84 40.87 63.84 5.08 129.2 5.08 128.26"/>
      <polygon class="cls-171" points="5.08 127.32 39.84 63.84 40.35 63.84 5.08 128.26 5.08 127.32"/>
      <polygon class="cls-22" points="5.08 126.38 39.32 63.84 39.84 63.84 5.08 127.32 5.08 126.38"/>
      <polygon class="cls-166" points="5.08 125.44 38.8 63.84 39.32 63.84 5.08 126.38 5.08 125.44"/>
      <polygon class="cls-166" points="5.08 124.55 38.32 63.84 38.8 63.84 5.08 125.44 5.08 124.55"/>
      <polygon class="cls-40" points="5.08 123.67 37.83 63.84 38.32 63.84 5.08 124.55 5.08 123.67"/>
      <polygon class="cls-54" points="5.08 122.78 37.35 63.84 37.83 63.84 5.08 123.67 5.08 122.78"/>
      <polygon class="cls-38" points="5.08 121.89 36.86 63.84 37.35 63.84 5.08 122.78 5.08 121.89"/>
      <polygon class="cls-47" points="5.08 121.01 36.38 63.84 36.86 63.84 5.08 121.89 5.08 121.01"/>
      <polygon class="cls-135" points="5.08 120.12 35.89 63.84 36.38 63.84 5.08 121.01 5.08 120.12"/>
      <polygon class="cls-57" points="5.08 119.23 35.41 63.84 35.89 63.84 5.08 120.12 5.08 119.23"/>
      <polygon class="cls-123" points="5.08 118.35 34.92 63.84 35.41 63.84 5.08 119.23 5.08 118.35"/>
      <polygon class="cls-45" points="5.08 117.46 34.44 63.84 34.92 63.84 5.08 118.35 5.08 117.46"/>
      <polygon class="cls-121" points="5.08 116.57 33.95 63.84 34.44 63.84 5.08 117.46 5.08 116.57"/>
      <polygon class="cls-175" points="5.08 115.68 33.46 63.84 33.95 63.84 5.08 116.57 5.08 115.68"/>
      <polygon class="cls-127" points="5.08 114.8 32.98 63.84 33.46 63.84 5.08 115.68 5.08 114.8"/>
      <polygon class="cls-24" points="5.08 113.91 32.49 63.84 32.98 63.84 5.08 114.8 5.08 113.91"/>
      <polygon class="cls-88" points="5.08 113.02 32.01 63.84 32.49 63.84 5.08 113.91 5.08 113.02"/>
      <polygon class="cls-196" points="5.08 112.14 31.52 63.84 32.01 63.84 5.08 113.02 5.08 112.14"/>
      <polygon class="cls-181" points="5.08 111.25 31.04 63.84 31.52 63.84 5.08 112.14 5.08 111.25"/>
      <polygon class="cls-94" points="5.08 110.36 30.55 63.84 31.04 63.84 5.08 111.25 5.08 110.36"/>
      <polygon class="cls-159" points="5.08 109.48 30.07 63.84 30.55 63.84 5.08 110.36 5.08 109.48"/>
      <polygon class="cls-84" points="5.08 108.59 29.58 63.84 30.07 63.84 5.08 109.48 5.08 108.59"/>
      <polygon class="cls-177" points="5.08 107.7 29.09 63.84 29.58 63.84 5.08 108.59 5.08 107.7"/>
      <polygon class="cls-55" points="5.08 106.82 28.61 63.84 29.09 63.84 5.08 107.7 5.08 106.82"/>
      <polygon class="cls-161" points="5.08 105.93 28.12 63.84 28.61 63.84 5.08 106.82 5.08 105.93"/>
      <polygon class="cls-148" points="5.08 105.04 27.64 63.84 28.12 63.84 5.08 105.93 5.08 105.04"/>
      <polygon class="cls-87" points="5.08 104.16 27.15 63.84 27.64 63.84 5.08 105.04 5.08 104.16"/>
      <polygon class="cls-162" points="5.08 103.27 26.67 63.84 27.15 63.84 5.08 104.16 5.08 103.27"/>
      <polygon class="cls-202" points="5.08 102.38 26.18 63.84 26.67 63.84 5.08 103.27 5.08 102.38"/>
      <polygon class="cls-61" points="5.08 101.5 25.7 63.84 26.18 63.84 5.08 102.38 5.08 101.5"/>
      <polygon class="cls-48" points="5.08 100.61 25.21 63.84 25.7 63.84 5.08 101.5 5.08 100.61"/>
      <polygon class="cls-7" points="5.08 99.72 24.73 63.84 25.21 63.84 5.08 100.61 5.08 99.72"/>
      <polygon class="cls-73" points="5.08 98.84 24.24 63.84 24.73 63.84 5.08 99.72 5.08 98.84"/>
      <polygon class="cls-41" points="5.08 97.95 23.75 63.84 24.24 63.84 5.08 98.84 5.08 97.95"/>
      <polygon class="cls-136" points="5.08 97.06 23.27 63.84 23.75 63.84 5.08 97.95 5.08 97.06"/>
      <polygon class="cls-125" points="5.08 96.18 22.78 63.84 23.27 63.84 5.08 97.06 5.08 96.18"/>
      <polygon class="cls-29" points="5.08 95.29 22.3 63.84 22.78 63.84 5.08 96.18 5.08 95.29"/>
      <polygon class="cls-34" points="5.08 94.4 21.81 63.84 22.3 63.84 5.08 95.29 5.08 94.4"/>
      <polygon class="cls-190" points="5.08 93.51 21.33 63.84 21.81 63.84 5.08 94.4 5.08 93.51"/>
      <polygon class="cls-102" points="5.08 92.63 20.84 63.84 21.33 63.84 5.08 93.51 5.08 92.63"/>
      <polygon class="cls-3" points="5.08 91.74 20.36 63.84 20.84 63.84 5.08 92.63 5.08 91.74"/>
      <polygon class="cls-115" points="5.08 90.85 19.87 63.84 20.36 63.84 5.08 91.74 5.08 90.85"/>
      <polygon class="cls-168" points="5.08 89.97 19.38 63.84 19.87 63.84 5.08 90.85 5.08 89.97"/>
      <polygon class="cls-49" points="5.08 89.08 18.9 63.84 19.38 63.84 5.08 89.97 5.08 89.08"/>
      <polygon class="cls-120" points="5.08 88.19 18.41 63.84 18.9 63.84 5.08 89.08 5.08 88.19"/>
      <polygon class="cls-130" points="5.08 87.31 17.93 63.84 18.41 63.84 5.08 88.19 5.08 87.31"/>
      <polygon class="cls-197" points="5.08 86.42 17.44 63.84 17.93 63.84 5.08 87.31 5.08 86.42"/>
      <polygon class="cls-71" points="5.08 85.53 16.96 63.84 17.44 63.84 5.08 86.42 5.08 85.53"/>
      <polygon class="cls-189" points="5.08 84.65 16.47 63.84 16.96 63.84 5.08 85.53 5.08 84.65"/>
      <polygon class="cls-79" points="5.08 83.76 15.99 63.84 16.47 63.84 5.08 84.65 5.08 83.76"/>
      <polygon class="cls-63" points="5.08 82.87 15.5 63.84 15.99 63.84 5.08 83.76 5.08 82.87"/>
      <polygon class="cls-27" points="5.08 81.99 15.02 63.84 15.5 63.84 5.08 82.87 5.08 81.99"/>
      <polygon class="cls-59" points="5.08 81.1 14.53 63.84 15.02 63.84 5.08 81.99 5.08 81.1"/>
      <polygon class="cls-174" points="5.08 80.21 14.04 63.84 14.53 63.84 5.08 81.1 5.08 80.21"/>
      <polygon class="cls-133" points="5.08 79.33 13.56 63.84 14.04 63.84 5.08 80.21 5.08 79.33"/>
      <polygon class="cls-32" points="5.08 78.44 13.07 63.84 13.56 63.84 5.08 79.33 5.08 78.44"/>
      <polygon class="cls-172" points="5.08 77.55 12.59 63.84 13.07 63.84 5.08 78.44 5.08 77.55"/>
      <polygon class="cls-155" points="5.08 76.67 12.1 63.84 12.59 63.84 5.08 77.55 5.08 76.67"/>
      <polygon class="cls-43" points="5.08 75.78 11.62 63.84 12.1 63.84 5.08 76.67 5.08 75.78"/>
      <polygon class="cls-113" points="5.08 74.89 11.13 63.84 11.62 63.84 5.08 75.78 5.08 74.89"/>
      <polygon class="cls-163" points="5.08 74.01 10.65 63.84 11.13 63.84 5.08 74.89 5.08 74.01"/>
      <polygon class="cls-62" points="5.08 73.12 10.16 63.84 10.65 63.84 5.08 74.01 5.08 73.12"/>
      <polygon class="cls-21" points="5.08 72.23 9.68 63.84 10.16 63.84 5.08 73.12 5.08 72.23"/>
      <polygon class="cls-164" points="5.08 71.35 9.19 63.84 9.68 63.84 5.08 72.23 5.08 71.35"/>
      <polygon class="cls-1" points="5.08 70.46 8.7 63.84 9.19 63.84 5.08 71.35 5.08 70.46"/>
      <polygon class="cls-106" points="5.08 69.57 8.22 63.84 8.7 63.84 5.08 70.46 5.08 69.57"/>
      <polygon class="cls-154" points="5.08 68.68 7.73 63.84 8.22 63.84 5.08 69.57 5.08 68.68"/>
      <polygon class="cls-200" points="5.08 67.8 7.25 63.84 7.73 63.84 5.08 68.68 5.08 67.8"/>
      <polygon class="cls-139" points="5.08 66.91 6.76 63.84 7.25 63.84 5.08 67.8 5.08 66.91"/>
      <polygon class="cls-46" points="5.08 66.02 6.28 63.84 6.76 63.84 5.08 66.91 5.08 66.02"/>
      <polygon class="cls-131" points="5.08 65.14 5.79 63.84 6.28 63.84 5.08 66.02 5.08 65.14"/>
      <polygon class="cls-23" points="5.08 64.25 5.31 63.84 5.79 63.84 5.08 65.14 5.08 64.25"/>
      <polygon class="cls-58" points="5.31 63.84 5.08 64.25 5.08 63.84 5.31 63.84"/>
    </g>
  </g>
</svg>