<?xml version="1.0" encoding="UTF-8"?>
<svg xmlns="http://www.w3.org/2000/svg" viewBox="0 0 350 350">
  <defs>
    <style>
      .cls-1 {
        fill: #804200;
      }

      .cls-1, .cls-2, .cls-3, .cls-4, .cls-5, .cls-6, .cls-7, .cls-8 {
        stroke-width: 0px;
      }

      .cls-2, .cls-6 {
        fill: #ccc;
      }

      .cls-2, .cls-8 {
        mix-blend-mode: multiply;
      }

      .cls-3 {
        fill: #cc6a00;
      }

      .cls-4 {
        fill: #be6300;
      }

      .cls-5 {
        fill: #f7aa59;
      }

      .cls-6, .cls-7 {
        mix-blend-mode: soft-light;
      }

      .cls-9 {
        isolation: isolate;
      }

      .cls-7 {
        fill: #fff;
      }

      .cls-8 {
        fill: #dba97f;
      }
    </style>
  </defs>
  <g class="cls-9">
    <g id="Layer_1" data-name="Layer 1">
      <g>
        <path class="cls-1" d="M197.5,2.54h-36.78v343.6h36.78c62.54,0,113.23-76.92,113.23-171.8S260.04,2.54,197.5,2.54Z"/>
        <path class="cls-8" d="M160.72,336.82v9.32h36.78c26.57,0,50.98-13.92,70.29-37.16l-107.07,1.32v26.52Z"/>
        <path class="cls-6" d="M223.92,119.98l80.78-.99c-5.34-23.81-14.02-45.25-25.2-63.07l-56.07.69.5,63.37Z"/>
        <path class="cls-6" d="M223.41,44.54l47.78-.58c-2.45-3.19-4.98-6.22-7.6-9.08l-40.25.49.07,9.17Z"/>
        <ellipse class="cls-5" cx="160.72" cy="174.34" rx="113.23" ry="171.8"/>
        <ellipse class="cls-4" cx="160.72" cy="174.34" rx="109.52" ry="166.16"/>
        <path class="cls-6" d="M106.5,318.68l157.74-198.58c-5.36-23.54-14.09-44.68-25.35-62.08l-167.95,211.43c9.28,20.14,21.43,37,35.55,49.24Z"/>
        <path class="cls-6" d="M266.44,217.73l-97.06,122.2c46.73-5.55,85.21-55.56,97.06-122.2Z"/>
        <path class="cls-6" d="M56.07,125.26L148.17,9.31c-11.05,1.91-21.59,6.32-31.39,12.84l-46.54,58.6c-6.1,13.54-10.91,28.51-14.17,44.52Z"/>
        <path class="cls-6" d="M64.86,254.68L230.45,46.21c-1.99-2.5-4.07-4.86-6.18-7.15L61.35,244.17c1.09,3.57,2.26,7.08,3.51,10.51Z"/>
        <ellipse class="cls-7" cx="163.25" cy="179" rx="77.9" ry="118.19"/>
        <ellipse class="cls-3" cx="160.72" cy="174.34" rx="77.9" ry="118.19"/>
        <path class="cls-2" d="M92.83,177.68c0-65.27,34.88-118.19,77.9-118.19,3.95,0,7.83.45,11.62,1.31-6.87-3.01-14.12-4.65-21.63-4.65-43.02,0-77.9,52.92-77.9,118.19,0,59.28,28.77,108.36,66.28,116.87-32.5-14.22-56.27-59.65-56.27-113.54Z"/>
      </g>
    </g>
  </g>
</svg>