<?xml version="1.0" encoding="UTF-8"?>
<svg xmlns="http://www.w3.org/2000/svg" viewBox="0 0 350 350">
  <defs>
    <style>
      .cls-1 {
        fill: #eae8e3;
      }

      .cls-1, .cls-2, .cls-3, .cls-4, .cls-5, .cls-6 {
        stroke-width: 0px;
      }

      .cls-1, .cls-6 {
        mix-blend-mode: soft-light;
      }

      .cls-2 {
        mix-blend-mode: multiply;
      }

      .cls-2, .cls-6 {
        fill: #ccc;
      }

      .cls-3 {
        fill: #cc6a00;
      }

      .cls-4 {
        fill: #be6300;
      }

      .cls-5 {
        fill: #f7aa59;
      }

      .cls-7 {
        isolation: isolate;
      }
    </style>
  </defs>
  <g class="cls-7">
    <g id="Layer_1" data-name="Layer 1">
      <g>
        <circle class="cls-5" cx="175" cy="175" r="174.01" transform="translate(-72.49 175) rotate(-45)"/>
        <circle class="cls-4" cx="175" cy="175" r="169.56" transform="translate(-72.49 175) rotate(-45)"/>
        <path class="cls-6" d="M295.23,55.45L55.45,295.23c16.07,15.98,35.33,28.72,56.73,37.26l220.31-220.31c-8.54-21.4-21.28-40.67-37.26-56.73Z"/>
        <path class="cls-6" d="M340.29,212.75l-127.54,127.54c63.32-14.4,113.13-64.22,127.54-127.54Z"/>
        <path class="cls-6" d="M91.73,27.31L27.31,91.73c-7.1,12.56-12.67,26.1-16.39,40.39L132.12,10.92c-14.29,3.72-27.83,9.29-40.39,16.39Z"/>
        <path class="cls-6" d="M272.89,36.59L36.59,272.89c2.75,3.89,5.65,7.66,8.72,11.3L284.19,45.31c-3.64-3.06-7.41-5.96-11.3-8.72Z"/>
        <circle class="cls-1" cx="178.34" cy="178.15" r="122.86" transform="translate(-73.73 178.28) rotate(-45)"/>
        <circle class="cls-3" cx="175" cy="175" r="122.86" transform="translate(-72.49 175) rotate(-45)"/>
        <path class="cls-2" d="M58.81,181.67c0-67.85,55.01-122.86,122.86-122.86,32.23,0,61.55,12.43,83.46,32.73-22.44-24.22-54.51-39.4-90.13-39.4-67.85,0-122.86,55.01-122.86,122.86,0,35.62,15.18,67.69,39.4,90.13-20.3-21.92-32.73-51.23-32.73-83.46Z"/>
      </g>
    </g>
  </g>
</svg>