<?xml version="1.0" encoding="UTF-8"?>
<svg xmlns="http://www.w3.org/2000/svg" viewBox="0 0 350 350">
  <defs>
    <style>
      .cls-1 {
        fill: #804200;
      }

      .cls-1, .cls-2, .cls-3, .cls-4, .cls-5, .cls-6, .cls-7, .cls-8 {
        stroke-width: 0px;
      }

      .cls-2, .cls-6 {
        fill: #ccc;
      }

      .cls-2, .cls-8 {
        mix-blend-mode: multiply;
      }

      .cls-3 {
        fill: #cc6a00;
      }

      .cls-4 {
        fill: #be6300;
      }

      .cls-5 {
        fill: #f7aa59;
      }

      .cls-6, .cls-7 {
        mix-blend-mode: soft-light;
      }

      .cls-9 {
        isolation: isolate;
      }

      .cls-7 {
        fill: #fff;
      }

      .cls-8 {
        fill: #dba97f;
      }
    </style>
  </defs>
  <g class="cls-9">
    <g id="Layer_1" data-name="Layer 1">
      <g>
        <g>
          <path class="cls-1" d="M190.18,3.2h-30.37v343.6h30.37c80,0,144.84-76.92,144.84-171.8S270.18,3.2,190.18,3.2Z"/>
          <path class="cls-8" d="M159.82,337.48v9.32h30.37c33.98,0,65.21-13.92,89.92-37.16l-120.28,1.32v26.52Z"/>
          <path class="cls-6" d="M223.97,120.64l103.33-.99c-6.83-23.81-17.93-45.25-32.24-63.07l-71.73.69.64,63.37Z"/>
          <path class="cls-6" d="M223.32,45.2l61.12-.58c-3.13-3.19-6.37-6.22-9.73-9.08l-51.49.49.09,9.17Z"/>
        </g>
        <ellipse class="cls-5" cx="159.82" cy="175" rx="144.84" ry="171.8"/>
        <ellipse class="cls-4" cx="159.82" cy="175" rx="140.09" ry="166.16"/>
        <path class="cls-6" d="M90.45,319.33l201.77-198.58c-6.86-23.54-18.03-44.68-32.42-62.08L44.98,270.1c11.88,20.14,27.41,37,45.48,49.24Z"/>
        <path class="cls-6" d="M295.05,218.39l-124.16,122.2c59.77-5.55,109-55.56,124.16-122.2Z"/>
        <path class="cls-6" d="M25.95,125.91L143.76,9.96c-14.13,1.91-27.62,6.32-40.15,12.84l-59.54,58.6c-7.8,13.54-13.96,28.51-18.13,44.52Z"/>
        <path class="cls-6" d="M37.19,255.34L249.01,46.87c-2.55-2.5-5.2-4.86-7.9-7.15L32.7,244.83c1.4,3.57,2.89,7.08,4.49,10.51Z"/>
        <ellipse class="cls-7" cx="163.04" cy="179.65" rx="99.64" ry="118.19"/>
        <ellipse class="cls-3" cx="159.82" cy="175" rx="99.64" ry="118.19"/>
        <path class="cls-2" d="M66.84,185.01c0-65.27,44.61-118.19,99.64-118.19,29.76,0,56.45,15.49,74.71,40.02-18.05-30.26-47.76-50.03-81.38-50.03-55.03,0-99.64,52.92-99.64,118.19,0,29.98,9.43,57.33,24.93,78.16-11.49-19.26-18.26-42.77-18.26-68.16Z"/>
      </g>
    </g>
  </g>
</svg>