<?xml version="1.0" encoding="UTF-8"?>
<svg xmlns="http://www.w3.org/2000/svg" viewBox="0 0 350 350">
  <defs>
    <style>
      .cls-1 {
        fill: #fee475;
      }

      .cls-1, .cls-2, .cls-3, .cls-4, .cls-5, .cls-6, .cls-7 {
        stroke-width: 0px;
      }

      .cls-2 {
        fill: #fb9d12;
      }

      .cls-3 {
        fill: #fed425;
      }

      .cls-8 {
        isolation: isolate;
      }

      .cls-4 {
        fill: #db6402;
      }

      .cls-5 {
        fill: #fff;
        mix-blend-mode: soft-light;
      }

      .cls-6 {
        fill: #feb724;
      }

      .cls-7 {
        fill: #dba97f;
        mix-blend-mode: multiply;
      }
    </style>
  </defs>
  <g class="cls-8">
    <g id="Layer_1" data-name="Layer 1">
      <g>
        <path class="cls-4" d="M156.61,3.2h36.78v343.6h-36.78c-62.54,0-113.23-76.92-113.23-171.8S94.07,3.2,156.61,3.2Z"/>
        <path class="cls-7" d="M193.39,337.48v9.32h-36.78c-26.57,0-50.98-13.92-70.29-37.16l107.07,1.32v26.52Z"/>
        <path class="cls-5" d="M130.2,120.64l-80.78-.99c5.34-23.81,14.02-45.25,25.2-63.07l56.07.69-.5,63.37Z"/>
        <path class="cls-5" d="M130.7,45.2l-47.78-.58c2.45-3.19,4.98-6.22,7.6-9.08l40.25.49-.07,9.17Z"/>
        <ellipse class="cls-1" cx="193.39" cy="175" rx="113.24" ry="171.8"/>
        <ellipse class="cls-3" cx="193.39" cy="175" rx="109.52" ry="166.16"/>
        <path class="cls-5" d="M247.62,319.33L89.88,120.75c5.36-23.54,14.09-44.68,25.35-62.08l167.95,211.43c-9.28,20.14-21.43,37-35.55,49.23Z"/>
        <path class="cls-5" d="M87.67,218.39l97.06,122.2c-46.73-5.55-85.21-55.56-97.06-122.2Z"/>
        <path class="cls-5" d="M298.04,125.91L205.94,9.96c11.05,1.91,21.59,6.32,31.39,12.84l46.54,58.6c6.1,13.54,10.91,28.51,14.17,44.52Z"/>
        <path class="cls-5" d="M289.25,255.34L123.66,46.87c1.99-2.5,4.07-4.86,6.18-7.15l162.92,205.11c-1.09,3.57-2.26,7.08-3.51,10.51Z"/>
        <path class="cls-5" d="M193.39,9.48c-61.84,0-112.07,75.23-113.18,168.66-.01-1.05-.05-2.09-.05-3.14C80.15,80.12,130.85,3.2,193.39,3.2s113.23,76.92,113.23,171.8c0,1.05-.04,2.09-.05,3.14-1.11-93.43-51.34-168.66-113.18-168.66Z"/>
        <ellipse class="cls-5" cx="190.87" cy="179.65" rx="77.9" ry="118.19"/>
        <ellipse class="cls-6" cx="193.39" cy="175" rx="77.9" ry="118.19"/>
        <path class="cls-2" d="M261.28,178.33c0-65.27-34.88-118.19-77.9-118.19-3.95,0-7.83.45-11.62,1.31,6.87-3.01,14.12-4.65,21.63-4.65,43.02,0,77.9,52.92,77.9,118.19,0,59.28-28.77,108.36-66.28,116.87,32.5-14.22,56.27-59.65,56.27-113.54Z"/>
      </g>
    </g>
  </g>
</svg>