<?xml version="1.0" encoding="UTF-8"?>
<svg xmlns="http://www.w3.org/2000/svg" viewBox="0 0 350 350">
  <defs>
    <style>
      .cls-1 {
        fill: #b1c8d9;
      }

      .cls-1, .cls-2, .cls-3, .cls-4, .cls-5, .cls-6, .cls-7 {
        stroke-width: 0px;
      }

      .cls-2 {
        fill: #92a4b3;
      }

      .cls-3, .cls-6 {
        fill: #cfdce6;
      }

      .cls-3, .cls-7 {
        mix-blend-mode: soft-light;
      }

      .cls-4 {
        fill: #c3cfd9;
        mix-blend-mode: multiply;
      }

      .cls-5 {
        fill: #a9bece;
      }

      .cls-8 {
        isolation: isolate;
      }

      .cls-7 {
        fill: #fff;
      }
    </style>
  </defs>
  <g class="cls-8">
    <g id="Layer_1" data-name="Layer 1">
      <g>
        <g>
          <path class="cls-2" d="M163.15,7.85h30.37v343.6h-30.37c-80,0-144.84-76.92-144.84-171.8S83.16,7.85,163.15,7.85Z"/>
          <path class="cls-4" d="M193.52,342.14v9.32h-30.37c-33.98,0-65.21-13.92-89.92-37.16l120.28,1.32v26.52Z"/>
          <path class="cls-3" d="M129.36,125.29l-103.33-.99c6.83-23.81,17.93-45.25,32.24-63.07l71.73.69-.64,63.37Z"/>
          <path class="cls-3" d="M130.01,49.86l-61.12-.58c3.13-3.19,6.37-6.22,9.73-9.08l51.49.49-.09,9.17Z"/>
        </g>
        <ellipse class="cls-6" cx="193.52" cy="179.65" rx="144.84" ry="171.8"/>
        <ellipse class="cls-5" cx="193.52" cy="179.65" rx="140.09" ry="166.16"/>
        <path class="cls-3" d="M262.88,323.99L61.11,125.4c6.86-23.54,18.03-44.68,32.42-62.08l214.83,211.43c-11.88,20.14-27.41,37-45.48,49.24Z"/>
        <path class="cls-3" d="M58.29,223.05l124.16,122.2c-59.77-5.55-108.99-55.56-124.16-122.2Z"/>
        <path class="cls-3" d="M327.38,130.57L209.57,14.62c14.13,1.91,27.62,6.32,40.15,12.84l59.54,58.6c7.8,13.54,13.96,28.51,18.13,44.52Z"/>
        <path class="cls-3" d="M316.14,259.99L104.33,51.52c2.55-2.5,5.2-4.86,7.9-7.15l208.4,205.11c-1.4,3.57-2.89,7.08-4.49,10.51Z"/>
        <ellipse class="cls-7" cx="190.29" cy="184.31" rx="99.64" ry="118.19"/>
        <ellipse class="cls-1" cx="193.52" cy="179.65" rx="99.64" ry="118.19"/>
        <path class="cls-4" d="M286.49,189.66c0-65.27-44.61-118.19-99.64-118.19-29.76,0-56.45,15.49-74.71,40.02,18.05-30.26,47.76-50.03,81.38-50.03,55.03,0,99.64,52.91,99.64,118.19,0,29.98-9.43,57.33-24.93,78.16,11.49-19.26,18.26-42.77,18.26-68.16Z"/>
      </g>
    </g>
  </g>
</svg>