<?xml version="1.0" encoding="UTF-8"?>
<svg id="Layer_1" data-name="Layer 1" xmlns="http://www.w3.org/2000/svg" viewBox="0 0 350 100">
  <defs>
    <style>
      .cls-1 {
        fill: #ffb701;
        stroke-width: 0px;
      }
    </style>
  </defs>
  <path class="cls-1" d="M44.52,66.53c.04,6.35.02,10.07-.04,11.15-.32,4.95-1.41,8.72-3.26,11.33-1.85,2.61-4.27,4.46-7.22,5.45-1.96.66-5.13,1.2-9.47,1.62-9.62.94-14.48,1.4-24.34,2.27V1.76c5.68,0,8.52,0,14.19-.01,7.63,0,13.08.29,16.37.87,3.29.58,6.1,2.32,8.45,4.91,2.19,2.41,3.74,5.44,4.39,9.1.43,2.41.67,6.56.71,12.47l.22,37.44ZM25.43,66.25c-.08-13.74-.15-27.49-.23-41.23-.02-3.2-.47-5.17-1.36-5.93-.89-.76-2.43-1.12-4.62-1.09.1,20.72.2,41.44.3,62.15,3.36-.27,5.24-1.85,5.64-4.7.21-1.47.29-4.55.27-9.2Z"/>
  <path class="cls-1" d="M94.62,63.34c0,4.21-.26,7.71-.75,10.49-.49,2.79-1.54,5.52-3.14,8.22-1.6,2.7-3.77,4.71-6.51,6.03-2.74,1.32-6.15,2.21-10.25,2.66-4.65.51-8.62.27-11.89-.74-3.28-1.01-5.82-2.97-7.36-5.8-1.29-2.37-2.09-5.23-2.46-8.35-.37-3.11-.57-7.56-.6-13.33-.11-20.41-.22-40.81-.32-61.22,7.58,0,11.37,0,18.95,0,.06,23.04.12,46.08.18,69.12,0,2.69.15,4.57.43,5.62.28,1.06,1.05,1.53,2.3,1.41.9-.08,1.58-.67,2.03-1.74.45-1.08.67-3.38.67-6.92-.04-22.5-.07-45-.11-67.5,7.58,0,11.37,0,18.95,0-.04,20.68-.09,41.36-.13,62.04Z"/>
  <path class="cls-1" d="M144.47,53.42c0,.95-.01,1.66-.02,2.14,0,.79,0,1.39-.01,1.78-.03,4.44-.34,7.94-.93,10.52-1.75,10.39-10.59,16.79-20.64,17.68-4.14.37-7.55.48-10.06.09-2.51-.39-4.73-1.67-6.67-3.77-2.31-2.5-3.82-5.53-4.4-9.07-.58-3.53-.86-8.86-.83-15.97.04-10.41.07-20.81.11-31.22.03-8.52,1.93-14.81,5.72-18.78,3.79-3.97,9.29-5.91,16.49-5.91,4.31,0,7.73.43,10.26,1.26,2.54.84,4.75,2.47,6.64,4.89,1.89,2.42,3.18,5.6,3.85,9.54.48,2.83.69,6.99.65,12.46-.01,1.71-.02,2.57-.03,4.28-7.22.28-10.82.43-18.01.72.03-4.37.05-6.56.08-10.93,0-.89.01-1.58.01-2.06.02-2.43,0-3.84-.08-4.25-.34-2.02-1.35-3.01-3.05-2.99-2.4.04-3.61,1.82-3.63,5.32-.1,15.8-.2,31.6-.3,47.39-.03,4.33,1.11,6.39,3.43,6.18,1.47-.13,2.39-.9,2.75-2.31.36-1.41.56-4.21.59-8.43.03-4.23.04-6.34.07-10.56,7.18-.45,10.78-.67,18.01-1.1,0,1.24-.01,1.85-.02,3.09Z"/>
  <path class="cls-1" d="M194.9,82.73c-7.76-.74-11.62-1.09-19.24-1.78-2.41-11.45-4.82-22.89-7.5-34.28-.02,11.36-.04,22.72-.06,34.09-7.82.69-11.68,1.05-19.35,1.8.18-27.1.36-54.19.54-81.29,7.58,0,11.37,0,18.96,0-.02,10.28-.04,20.57-.06,30.85,2.82-10.28,5.61-20.57,8.42-30.85,7.12,0,10.67,0,17.79,0-3.68,12.07-7.38,24.14-11.08,36.21,3.92,15.07,7.78,30.15,11.58,45.26Z"/>
  <path class="cls-1" d="M232.23,18.23c-5.27-.11-7.9-.16-13.16-.27-.04,6.38-.07,9.57-.11,15.94,4.71.18,7.07.28,11.8.46-.04,6.47-.05,9.7-.09,16.17-4.73-.28-7.1-.41-11.82-.68-.08,11.73-.16,23.45-.25,35.18-7.63-.75-11.43-1.12-18.97-1.84.2-27.3.4-54.61.6-81.91,10.7,0,21.39,0,32.09.01-.04,6.77-.06,10.16-.09,16.94Z"/>
  <path class="cls-1" d="M274.78,90.66c-12.23-1.23-24.47-2.47-36.7-3.7.13-28.56.26-57.12.38-85.67,7.58,0,11.37,0,18.96,0-.02,23.39-.05,46.77-.07,70.16,6.96.56,10.44.85,17.39,1.41.02,7.12.02,10.68.04,17.79Z"/>
  <path class="cls-1" d="M299.55,93.13c-7.64-.75-11.48-1.14-19.18-1.91-.09-29.97-.19-59.94-.28-89.91,7.58,0,11.37,0,18.96,0,.17,30.61.34,61.21.5,91.82Z"/>
  <path class="cls-1" d="M350.19,97.92c-6.8-.6-10.23-.92-17.16-1.56-.57-2.81-1.44-8.09-2.63-15.81-1.19-7.71-2.26-15.21-3.21-22.49-.59,7.66-1.05,13.11-1.39,16.38-.73,7.07-1.47,14.09-2.2,21.04-7.32-.7-11-1.05-18.41-1.78,2.22-17.08,4.41-34.17,6.59-51.26-2.37-13.71-4.74-27.41-7.13-41.11,7.33,0,10.99,0,18.32,0,1.37,9.8,2.72,19.59,4.07,29.39.68-4.74,1.59-11.54,2.75-20.44.27-2.38.64-5.37,1.12-8.95,6.35,0,9.53,0,15.88,0-2.16,14.1-4.3,28.19-6.44,42.29,3.34,18.09,6.62,36.18,9.83,54.3Z"/>
</svg>