<svg width="334" height="100" viewBox="0 0 334 100" fill="none" xmlns="http://www.w3.org/2000/svg">
<g clip-path="url(#clip0_276_423)">
<g clip-path="url(#clip1_276_423)">
<mask id="mask0_276_423" style="mask-type:luminance" maskUnits="userSpaceOnUse" x="-1" y="26" width="102" height="53">
<path d="M100.055 26.1157H-0.00195312V78.1295H100.055V26.1157Z" fill="white"/>
</mask>
<g mask="url(#mask0_276_423)">
<path d="M82.7594 71.3181V72.2489H83.6426V73.1774H84.5256V74.1081H85.4089V75.0386H84.5256V75.9699H83.6426V76.9004H82.7594V77.8311H80.9932V76.9024H81.8764V75.9716H82.7594V75.0404H83.6426V74.1099H82.7594V73.1774H81.8764V72.2489H80.9932V71.3181H82.7594Z" fill="white"/>
<path d="M79.933 71.4011H78.3947V72.2986H77.5256V73.2131H76.7015V74.1116H75.8325V75.0251H75.0096V75.9234H74.1405V76.8379H73.3174V77.7514H74.8557V76.8379H75.6789V75.9396H76.5489V75.0251H77.371V74.1276H78.2408V73.2131H79.0632V72.3149H79.933V71.4011Z" fill="white"/>
<path d="M63.8484 77.8329V76.9024H62.9655V75.9716H62.0822V75.0404H61.1992V74.1099H62.0822V73.1774H62.9655V72.2489H63.8484V71.3181H65.6147V72.2489H64.7317V73.1774H63.8484V74.1081H62.9655V75.0386H63.8484V75.9699H64.7317V76.9004H65.6147V77.8309L63.8484 77.8329Z" fill="white"/>
<path fill-rule="evenodd" clip-rule="evenodd" d="M86.2116 26.1157L5.97159 41.9382L-0.00195312 61.6355L13.5109 77.2972L66.6626 66.8212L69.628 78.1295L83.1268 63.576L93.7501 61.4817L99.7236 41.7775L86.2116 26.1157ZM10.8078 57.2422V55.4134H9.12988V53.5844H12.6722L12.7605 55.4134H17.4234V51.7519H10.8078V49.9267H9.21821V46.2652H10.8078V44.4409H19.4741V46.2697H21.0637V48.0987H17.5223V46.2697H12.764V49.9312H19.4759V51.7554H21.0655V55.4169H19.4759V57.2457L10.8078 57.2422ZM37.8096 48.0987V57.2422H40.8615V53.5809H46.2877V57.2422H49.3396V48.0987H48.0953V46.2697H46.2877V44.4409H40.8615V46.2697H39.0529V48.0987H37.8096ZM46.2877 51.7554H40.8615V48.0987H42.6704V46.2697H44.479V48.0942H46.2877V51.7554ZM79.5596 57.2422V48.0987H80.8046V46.2697H82.6125V44.4409H88.0377V46.2697H89.8463V48.0987H91.0899V57.2422H88.0377V53.5809H82.6115V57.2422H79.5596ZM82.6115 51.7554H88.0377V48.0942H86.229V46.2697H84.4256V48.0987H82.6115V51.7554ZM70.3959 46.2697V57.2422H73.7297V46.2697H77.4389V44.4409H66.5869V46.2697H70.3959ZM34.0874 46.2697V44.4409H25.5503V46.2859H24.2617V57.2422H27.123V51.7269H34.0874V49.8982H35.1861V46.2697H34.0874ZM32.3743 49.8982H27.123V46.2697H32.3698L32.3743 49.8982ZM62.8619 53.5844V55.4134H64.6723V57.2422H61.0561L61.0675 55.3989H59.4302V53.8004H57.8961V51.7564H55.8127V57.2422H52.8535V46.2859H54.1542V44.4409H62.8619V46.2697H64.1055V49.8847H62.7552V51.4697H61.0533V53.5844H62.8619ZM55.8127 46.2672V49.9284L61.0675 49.9257L61.0561 48.0969V46.2672H55.8127Z" fill="white"/>
</g>
<path d="M141.272 34.1584V47.8639H138.504V34.3329H132.422V70.7789H138.504V54.8474H141.272V71.4337H147.431V34.1584H141.272ZM121.312 63.1842V34.9439H114.88V69.6879H122.521C125.327 69.6879 128.875 69.2949 130.863 68.3784V61.9184C128.836 62.7479 125.717 63.1842 123.105 63.1842H121.312Z" fill="white"/>
<path d="M183.605 34.1584H177.017V52.4032H183.605V34.1584ZM162.32 34.2019C155.771 34.2019 151.6 37.8685 151.6 43.2372C151.6 48.6495 155.771 52.2722 162.32 52.2722C168.869 52.2722 173.041 48.6495 173.041 43.2372C173.041 37.8685 168.869 34.2019 162.32 34.2019ZM162.32 40.0072C164.854 40.0072 166.53 41.273 166.53 43.2372C166.53 45.2015 164.854 46.4672 162.32 46.4672C159.786 46.4672 158.11 45.2015 158.11 43.2372C158.11 41.273 159.786 40.0072 162.32 40.0072ZM183.605 53.7127H154.173V58.8194H177.095V60.3035H154.25V71.4337H183.956V66.3269H160.761V64.8429H183.605V53.7127Z" fill="white"/>
<path d="M215.491 34.1584V47.8639H212.723V34.3329H206.641V70.7789H212.723V54.8474H215.491V71.4337H221.65V34.1584H215.491ZM198.221 46.0307H195.102V35.0314H189.099V69.6879H204.224V35.0314H198.221V46.0307ZM195.102 63.0534V52.6214H198.221V63.0534H195.102Z" fill="white"/>
<path d="M242.464 48.7371C251.236 48.7371 257.667 46.5109 257.667 41.1421C257.667 35.7736 251.236 33.5474 242.464 33.5474C233.693 33.5474 227.26 35.7736 227.26 41.1421C227.26 46.5109 233.693 48.7371 242.464 48.7371ZM242.464 39.0909C247.454 39.0909 250.65 39.7456 250.65 41.1421C250.65 42.5826 247.454 43.1936 242.464 43.1936C237.474 43.1936 234.277 42.5826 234.277 41.1421C234.277 39.7456 237.474 39.0909 242.464 39.0909ZM259.305 55.6334V49.9591H225.623V55.6334H239.189V57.6849H227.572V71.4339H257.355V57.6849H245.738V55.6334H259.305ZM250.845 65.8906H234.082V63.2281H250.845V65.8906Z" fill="white"/>
<path d="M289.707 34.1584V40.7929H286.939V34.3329H280.86V55.0657H286.939V47.6019H289.707V55.4587H295.866V34.1584H289.707ZM278.441 41.8842V34.5949H263.12V40.0509H272.362V42.1459H263.12V47.4274H270.84C269.436 49.0859 266.98 49.8717 263.12 49.9589V55.4587C272.047 55.4587 278.441 50.5699 278.441 41.8842ZM265.227 71.4337H295.866V56.7679H265.227V71.4337ZM271.736 62.6604H289.358V65.5412H271.736V62.6604Z" fill="white"/>
<path d="M332.002 51.4867H326.935V41.8405H331.651V35.0315H301.712V41.8405H306.43V51.4867H301.36V58.2522H332.002V51.4867ZM313.056 41.8405H320.307V51.4867H313.056V41.8405ZM299.842 63.228V70.1245H333.523V63.228H299.842Z" fill="white"/>
</g>
</g>
<defs>
<clipPath id="clip0_276_423">
<rect width="334" height="100" fill="white"/>
</clipPath>
<clipPath id="clip1_276_423">
<rect width="334.146" height="100" fill="white"/>
</clipPath>
</defs>
</svg>
